<svg width="47" height="47" fill="none" xmlns="http://www.w3.org/2000/svg"><path d="M44.96 27.413c-.737-.442-1.492-.887-2.248-1.323a19.558 19.558 0 00.001-4.555 146.01 146.01 0 002.246-1.322 2.95 2.95 0 001.195-3.637l-1.61-3.886a2.95 2.95 0 00-3.416-1.726c-.83.206-1.678.426-2.523.652a19.567 19.567 0 00-3.222-3.22c.227-.845.447-1.693.653-2.524a2.95 2.95 0 00-1.726-3.417L30.425.846a2.95 2.95 0 00-3.638 1.195c-.441.735-.886 1.49-1.322 2.247a19.567 19.567 0 00-4.555-.001 155.52 155.52 0 00-1.322-2.246A2.951 2.951 0 0015.95.846l-3.885 1.61a2.951 2.951 0 00-1.727 3.416c.207.832.427 1.68.653 2.523a19.553 19.553 0 00-3.22 3.222 145.19 145.19 0 00-2.524-.653A2.95 2.95 0 001.83 12.69L.22 16.576a2.951 2.951 0 001.196 3.637c.735.441 1.49.886 2.247 1.322a19.575 19.575 0 00-.001 4.555c-.757.437-1.512.882-2.246 1.323A2.951 2.951 0 00.22 31.05l1.61 3.885a2.95 2.95 0 003.416 1.727c.83-.207 1.677-.426 2.523-.653a19.577 19.577 0 003.222 3.22c-.227.846-.447 1.695-.654 2.524a2.95 2.95 0 001.727 3.417l3.885 1.61a2.95 2.95 0 003.638-1.195c.438-.73.883-1.485 1.323-2.247 1.513.177 3.044.177 4.555 0 .434.754.879 1.51 1.322 2.246a2.951 2.951 0 003.637 1.195l3.885-1.609a2.951 2.951 0 001.727-3.417c-.205-.825-.425-1.673-.653-2.523a19.577 19.577 0 003.22-3.221c.845.226 1.694.446 2.524.653a2.95 2.95 0 003.417-1.727l1.61-3.885a2.951 2.951 0 00-1.196-3.637zm-3.245 6.166c-.798-.2-1.611-.411-2.42-.63a2.928 2.928 0 00-3.079 1.027 16.427 16.427 0 01-2.867 2.867 2.926 2.926 0 00-1.024 3.078c.219.814.43 1.627.629 2.42l-3.572 1.478c-.424-.708-.85-1.433-1.265-2.155a2.928 2.928 0 00-2.901-1.452 16.447 16.447 0 01-4.054 0 2.926 2.926 0 00-2.903 1.45c-.42.731-.846 1.456-1.267 2.157l-3.57-1.479c.199-.797.41-1.61.628-2.42a2.927 2.927 0 00-1.026-3.079 16.431 16.431 0 01-2.867-2.866 2.926 2.926 0 00-3.078-1.025c-.81.218-1.623.43-2.419.629l-1.48-3.571c.706-.423 1.43-.848 2.156-1.266a2.926 2.926 0 001.452-2.9 16.447 16.447 0 010-4.055 2.927 2.927 0 00-1.451-2.903c-.725-.418-1.45-.843-2.156-1.267l1.479-3.571c.796.2 1.609.41 2.42.63a2.928 2.928 0 003.079-1.027 16.427 16.427 0 012.866-2.867 2.926 2.926 0 001.025-3.078c-.218-.807-.429-1.62-.63-2.42l3.572-1.478c.422.703.847 1.427 1.266 2.155a2.926 2.926 0 002.9 1.452 16.417 16.417 0 014.055 0 2.927 2.927 0 002.903-1.451c.417-.725.843-1.45 1.266-2.156l3.572 1.479c-.2.797-.412 1.61-.63 2.42a2.927 2.927 0 001.027 3.079 16.438 16.438 0 012.867 2.866 2.926 2.926 0 003.078 1.025c.809-.218 1.622-.43 2.419-.63l1.479 3.572c-.705.422-1.429.848-2.155 1.266a2.926 2.926 0 00-1.452 2.9 16.426 16.426 0 010 4.055 2.928 2.928 0 001.45 2.903c.725.417 1.45.842 2.157 1.266l-1.479 3.572z" fill="#fff"/><path d="M33.052 19.726c-2.253-5.44-8.511-8.033-13.952-5.78-5.44 2.254-8.033 8.513-5.78 13.953a10.609 10.609 0 005.78 5.78c1.318.545 2.702.818 4.086.818 1.385 0 2.77-.273 4.087-.819 5.44-2.253 8.032-8.512 5.78-13.952zm-6.978 11.058a7.497 7.497 0 01-5.775 0 7.496 7.496 0 01-4.083-4.084c-1.593-3.844.24-8.266 4.083-9.858a7.504 7.504 0 012.878-.575c2.962 0 5.778 1.756 6.98 4.658 1.593 3.844-.24 8.266-4.083 9.858z" fill="#fff"/></svg>