<svg width="21" height="20" fill="none" xmlns="http://www.w3.org/2000/svg"><g opacity=".3" fill="#333"><path d="M4.156 20h12.688C19.135 20 21 18.224 21 16.042V3.958C21 1.776 19.135 0 16.844 0H4.156C1.865 0 0 1.776 0 3.958v12.084C0 18.224 1.865 20 4.156 20zM1.313 3.958c0-1.493 1.275-2.708 2.843-2.708h12.688c1.568 0 2.843 1.215 2.843 2.708v12.084c0 1.493-1.275 2.708-2.843 2.708H4.156c-1.568 0-2.843-1.215-2.843-2.708V3.958z"/><path d="M10.5 15.108c2.957 0 5.364-2.291 5.364-5.108 0-2.817-2.407-5.108-5.364-5.108-2.958 0-5.364 2.291-5.364 5.108 0 2.817 2.406 5.108 5.364 5.108zm0-8.966c2.234 0 4.051 1.73 4.051 3.858 0 2.127-1.817 3.858-4.051 3.858S6.449 12.128 6.449 10 8.266 6.142 10.5 6.142zm5.563-.007c.863 0 1.513-.617 1.513-1.434 0-.853-.684-1.434-1.512-1.434-.863 0-1.513.616-1.513 1.434 0 .85.681 1.434 1.512 1.434zm.155-1.572c.277.233-.354.515-.354.139 0-.225.32-.167.354-.139z"/></g></svg>