<svg width="10" height="10" fill="none" xmlns="http://www.w3.org/2000/svg"><path d="M1.042 4.375C.467 4.375 0 4.843 0 5.417V8.75c0 .574.468 1.042 1.042 1.042h1.25c.234 0 .45-.08.625-.211V4.375H1.042zM10 5.938a.928.928 0 00-.27-.656c.194-.213.293-.499.266-.796-.049-.53-.526-.944-1.087-.944H6.336c.127-.387.331-1.097.331-1.667C6.667.971 5.9.208 5.417.208c-.433 0-.742.244-.755.254a.21.21 0 00-.078.163v1.413l-1.2 2.6-.05.025V9.13c.34.16.768.246 1.042.246H8.2c.454 0 .851-.306.944-.728a.937.937 0 00-.075-.626.933.933 0 00.417-1.25.933.933 0 00.515-.833z" fill="#909090"/></svg>