<svg width="97" height="97" fill="none" xmlns="http://www.w3.org/2000/svg"><path d="M82.484 50.595l-6.087 1.419a7.04 7.04 0 00-5.252 8.443l4.61 19.783a2.344 2.344 0 002.814 1.75l15.218-3.546a2.344 2.344 0 001.75-2.815l-4.61-19.782a7.04 7.04 0 00-8.444-5.252zM77.46 56.58l6.086-1.419a2.346 2.346 0 012.815 1.75l.532 2.284-10.652 2.482-.532-2.283a2.346 2.346 0 011.75-2.814zm2.327 20.314l-2.482-10.652 10.652-2.482 2.483 10.65-10.652 2.482z" fill="#fff"/><path d="M79.282 14.95a7.04 7.04 0 00-9.684 2.258L59.89 32.815l-2.602-11.163a7.04 7.04 0 00-8.443-5.252l-6.637 1.546a7.033 7.033 0 00-5.947-1.807c-1.81-3.286-5.65-5.116-9.479-4.224-3.829.892-6.464 4.231-6.635 7.98a7.033 7.033 0 00-4.535 4.25L8.975 25.69a7.04 7.04 0 00-5.252 8.443L16.561 89.22a7.04 7.04 0 008.443 5.252l39.87-9.291a7.04 7.04 0 005.252-8.444l-5.723-24.554L81.54 24.635a7.04 7.04 0 00-2.257-9.684zM19.905 27.156a2.346 2.346 0 011.751-2.815l1.522-.355a2.344 2.344 0 001.75-2.814 3.91 3.91 0 012.918-4.69 3.91 3.91 0 014.691 2.917 2.344 2.344 0 002.815 1.75l1.521-.354a2.346 2.346 0 012.815 1.75l.177.761-19.782 4.61-.178-.76zM65.56 77.802a2.346 2.346 0 01-1.75 2.815l-39.87 9.29a2.346 2.346 0 01-2.814-1.75L8.289 33.071a2.346 2.346 0 011.75-2.815l5.479-1.277.531 2.283a2.344 2.344 0 002.815 1.75l24.348-5.673a2.344 2.344 0 001.75-2.815l-.532-2.282 5.479-1.277a2.346 2.346 0 012.814 1.75l3.666 15.73-9.899 15.913c-.133.214-.23.448-.29.693l-3.446 14.416a2.343 2.343 0 003.776 2.35l11.408-9.466c.194-.16.36-.352.493-.566l2.471-3.972 4.658 19.99zM52.442 60.82l-3.494 2.899 1.056-4.416 2.438 1.517zm3.247-3.501l-3.98-2.476 13.204-21.228 3.98 2.476L55.69 57.319zm15.68-25.209l-3.98-2.476 2.475-3.98 3.98 2.476-2.475 3.98zm6.19-9.95l-1.239 1.99-3.98-2.476 1.238-1.99a2.346 2.346 0 013.228-.753 2.347 2.347 0 01.752 3.228z" fill="#fff"/><path d="M28.193 36.678l-5.365 8.624-3.316-2.064a2.344 2.344 0 00-2.476 3.98l5.307 3.302c.55.342 1.186.428 1.77.292a2.336 2.336 0 001.458-1.044l6.602-10.615a2.344 2.344 0 00-3.98-2.475zm3.49 14.978l-5.364 8.624-3.317-2.063a2.344 2.344 0 10-2.476 3.98l5.307 3.301c.55.342 1.186.429 1.77.293a2.336 2.336 0 001.458-1.045l6.602-10.614a2.344 2.344 0 00-3.98-2.476zm3.771 17.02a2.344 2.344 0 00-3.228.753l-2.263 3.638-3.64-2.263a2.344 2.344 0 10-2.475 3.98l3.64 2.264-2.264 3.639a2.344 2.344 0 103.98 2.475l2.263-3.639 3.64 2.264a2.331 2.331 0 001.77.292 2.344 2.344 0 00.706-4.273l-3.64-2.263 2.264-3.639a2.343 2.343 0 00-.753-3.228z" fill="#fff"/></svg>