<svg width="64" height="72" fill="none" xmlns="http://www.w3.org/2000/svg"><path d="M62.47 11.91L51.177.619A2.103 2.103 0 0049.685 0H11.484a2.11 2.11 0 00-2.11 2.11v13.63h-6.35a2.11 2.11 0 00-2.11 2.11v52.04A2.11 2.11 0 003.024 72h57.954a2.11 2.11 0 002.11-2.11V13.404c0-.583-.236-1.11-.618-1.492zM51.795 7.203l4.091 4.091h-4.091V7.202zM34.74 19.96v12.656H5.133V19.96H34.74zM5.133 36.835H34.74V67.78H5.133V36.835zM38.959 67.78V17.85a2.11 2.11 0 00-2.11-2.11H13.593V4.219h33.983v9.184a2.11 2.11 0 002.11 2.11h9.183V67.78H38.96z" fill="#fff"/><path d="M30.404 59.627c-.165-.884-.923-1.571-1.809-1.682a2.127 2.127 0 00-2.165 1.192 2.126 2.126 0 00.28 2.243 2.128 2.128 0 002.361.634c.953-.352 1.54-1.388 1.333-2.387zm-8.438-.002a2.135 2.135 0 00-1.86-1.686 2.127 2.127 0 00-2.146 1.27 2.13 2.13 0 00.4 2.272c.627.67 1.64.85 2.463.452a2.125 2.125 0 001.143-2.308zm-8.438 0a2.135 2.135 0 00-1.655-1.655 2.125 2.125 0 00-2.222.984 2.128 2.128 0 00.114 2.337 2.127 2.127 0 002.357.748c.993-.328 1.62-1.385 1.406-2.414zM30.403 42.75c-.165-.865-.892-1.544-1.758-1.674a2.126 2.126 0 00-2.17 1.093 2.13 2.13 0 00.297 2.41 2.128 2.128 0 002.37.53c.913-.377 1.463-1.386 1.261-2.36zm-8.436 0a2.135 2.135 0 00-1.757-1.673 2.127 2.127 0 00-2.17 1.092 2.13 2.13 0 00.297 2.41 2.127 2.127 0 002.369.532c.913-.377 1.463-1.389 1.261-2.36zm-8.437 0a2.126 2.126 0 00-1.81-1.68 2.129 2.129 0 00-2.013.922A2.13 2.13 0 009.8 44.46c.56.72 1.545.993 2.397.679.954-.352 1.541-1.39 1.334-2.389zm16.875 8.437c-.166-.864-.893-1.543-1.758-1.673a2.126 2.126 0 00-2.17 1.092 2.13 2.13 0 00.297 2.41 2.127 2.127 0 002.37.532c.913-.377 1.463-1.389 1.26-2.36zm-8.438.001a2.134 2.134 0 00-1.757-1.674 2.126 2.126 0 00-2.17 1.093 2.13 2.13 0 00.296 2.41 2.129 2.129 0 002.37.532c.913-.378 1.463-1.389 1.261-2.361zm-8.437 0c-.173-.902-.954-1.595-1.861-1.687a2.129 2.129 0 00-2.017 1.016 2.13 2.13 0 00.246 2.5 2.13 2.13 0 002.464.49c.86-.407 1.361-1.384 1.167-2.32zm-2.028-22.79h16.87a2.11 2.11 0 000-4.22h-16.87a2.11 2.11 0 100 4.22z" fill="#fff"/></svg>