<svg width="79" height="79" fill="none" xmlns="http://www.w3.org/2000/svg"><path d="M51.166 2.868c-3.303 1.22-5.145 4.671-4.451 8.02l-1.266 2.745c-2.203 4.78-6.574 8.761-11.695 10.65l-13.193 4.87c-2.866 1.058-4.632 3.798-4.595 6.692l-.378.14c-4.85 1.79-7.34 7.191-5.55 12.04 1.79 4.85 7.192 7.34 12.041 5.55l.379-.14a7.065 7.065 0 005.502 2.536l4.197 11.373a7.04 7.04 0 009.031 4.161 7.039 7.039 0 004.162-9.03L41.293 51.48l2.199-.812c5.12-1.89 11.03-1.703 15.81.5l2.746 1.266c1.647 2.995 5.29 4.423 8.593 3.204a7.04 7.04 0 004.162-9.03L60.197 7.03a7.04 7.04 0 00-9.03-4.162zm-30.71 46.31a4.693 4.693 0 01-6.02-2.775 4.693 4.693 0 012.775-6.02l3.245 8.794zm20.497 14.92a2.346 2.346 0 01-1.388 3.01 2.346 2.346 0 01-3.01-1.387l-4.057-10.994 4.397-1.623 4.057 10.994zM39.67 47.083l-10.994 4.058a2.346 2.346 0 01-3.01-1.388l-4.87-13.193a2.346 2.346 0 011.388-3.01l10.994-4.057 6.492 17.59zm20.012-.832c-4.901-1.844-10.414-2.08-15.593-.686l-6.565-17.79c4.842-2.304 8.88-6.064 11.409-10.65l10.749 29.126zm10.724 1.98a2.346 2.346 0 01-1.387 3.01 2.346 2.346 0 01-3.01-1.387L51.401 10.276a2.346 2.346 0 011.387-3.01 2.346 2.346 0 013.01 1.387l14.607 39.578z" fill="#fff"/></svg>