<svg width="34" height="30" fill="none" xmlns="http://www.w3.org/2000/svg"><path d="M.587 14.568L8.9 18.746c.322.16.702.148 1.01-.033l7.4-4.338-4.48 4.002a1.077 1.077 0 00-.358.803v9.748c0 1.029 1.302 1.462 1.912.645l3.595-4.818 8.888 5.103a1.06 1.06 0 001.567-.72l5.544-27.853c.165-.837-.66-1.52-1.428-1.208L.674 12.61c-.856.337-.911 1.544-.088 1.957zM31.514 2.785L26.64 27.263l-8.422-4.836a1.059 1.059 0 00-1.376.287l-2.245 3.01V19.66L26.712 8.84c.96-.856-.143-2.377-1.238-1.728L9.338 16.57l-5.656-2.84L31.514 2.784z" fill="url(#paint0_linear)"/><defs><linearGradient id="paint0_linear" x1="0" y1="15" x2="26.47" y2="29.118" gradientUnits="userSpaceOnUse"><stop stop-color="#03DAE8"/><stop offset="1" stop-color="#528DFF"/></linearGradient></defs></svg>