<svg width="34" height="20" fill="none" xmlns="http://www.w3.org/2000/svg"><path d="M17.205 20c4.919 0 3.165-2.93 3.545-3.773-.006-.63-.012-1.235.011-1.603.312.083 1.047.433 2.566 1.823C25.67 18.673 26.27 20 28.164 20h3.487c1.105 0 1.68-.43 1.967-.792.278-.35.55-.963.253-1.917-.778-2.299-5.314-6.268-5.596-6.687a3.7 3.7 0 01.146-.233h-.003c.895-1.114 4.312-5.932 4.815-7.86a.024.024 0 00.003-.011c.272-.88.023-1.45-.235-1.773C32.613.244 31.995 0 31.16 0h-3.487c-1.167 0-2.052.553-2.5 1.563-.75 1.793-2.855 5.481-4.433 6.786a80.426 80.426 0 01.01-4.31C20.802 1.992 20.966 0 18.71 0h-5.48c-1.414 0-2.767 1.453-1.302 3.179 1.28 1.512.46 2.354.737 6.549-1.077-1.087-2.992-4.021-4.346-7.772C7.939.941 7.364.001 5.745.001H2.258C.844.001 0 .727 0 1.941 0 4.67 6.416 20 17.205 20zM5.745 2.001c.307 0 .338 0 .566.61 1.387 3.844 4.498 9.532 6.77 9.532 1.707 0 1.707-1.647 1.707-2.267l-.001-4.936c-.094-1.633-.725-2.447-1.14-2.94l4.97.005c.002.023-.03 5.46.013 6.778 0 1.87 1.579 2.942 4.042.596 2.6-2.762 4.397-6.89 4.47-7.058.106-.24.198-.321.532-.321h3.501l-.003.012c-.319 1.4-3.465 5.861-4.518 7.247-.017.021-.032.044-.048.066-.463.712-.84 1.499.064 2.606h.001c.082.093.296.312.608.616.969.941 4.293 4.16 4.587 5.44-.195.029-.408.008-3.702.014-.7 0-1.249-.986-3.341-2.973-1.882-1.723-3.103-2.427-4.215-2.427-2.159 0-2.002 1.65-1.982 3.644.007 2.163-.007 1.479.009 1.615-.127.047-.488.14-1.43.14C8.217 18 2.363 4.572 2.138 2.005c.078-.006 1.15-.002 3.607-.004z" fill="url(#paint0_linear)"/><defs><linearGradient id="paint0_linear" x1="0" y1="10" x2="20.73" y2="26.586" gradientUnits="userSpaceOnUse"><stop stop-color="#03DAE8"/><stop offset="1" stop-color="#528DFF"/></linearGradient></defs></svg>