<svg width="30" height="30" fill="none" xmlns="http://www.w3.org/2000/svg"><g opacity=".4" clip-path="url(#clip0)" fill="#000"><path d="M26.379 10.375h-.046a2.493 2.493 0 00-1.703.681c-.36-1.05-1.313-1.802-2.433-1.802a2.519 2.519 0 00-1.822.814c-.424-.895-1.3-1.495-2.31-1.495h-.048c-.581 0-1.147.173-1.533.517V2.728c0-1.504-1.166-2.728-2.59-2.728-1.421 0-2.583 1.223-2.584 2.726l-.011 12.583-.763-.928a3.535 3.535 0 00-2.498-1.312 3.48 3.48 0 00-2.605.922l-.615.51a.515.515 0 00-.129.634l5.982 11.484C11.759 28.709 13.829 30 16.073 30h6.708c3.402 0 6.173-2.94 6.176-6.565l.005-3.804c.003-2.642.004-3.63-.003-6.537-.003-1.5-1.16-2.72-2.58-2.72zm1.553 9.258l-.004 3.801c-.003 3.057-2.312 5.537-5.147 5.537h-6.708c-1.86 0-3.58-1.079-4.49-2.827l-5.789-11.12.305-.25.02-.016a2.457 2.457 0 011.847-.662 2.514 2.514 0 011.773.938l1.673 2.038a.515.515 0 00.913-.326l.01-14.02c0-.935.705-1.696 1.56-1.696.855 0 1.56.761 1.56 1.698v8.453l-.002.088.002.037v3.616a.515.515 0 001.03 0v-3.723c0-.904.698-1.596 1.532-1.596h.048c.855 0 1.572.73 1.572 1.667v3.307a.515.515 0 101.03 0v-2.595c0-.936.686-1.698 1.546-1.698.856 0 1.542.762 1.542 1.698v2.448a.515.515 0 001.03 0v-1.325c0-.937.693-1.7 1.548-1.7h.046c.853 0 1.549.76 1.551 1.693.007 2.906.006 3.895.002 6.535z"/><path d="M18.286 5.099h6.671l-1.196 1.196a.514.514 0 10.728.727l2.067-2.067a.515.515 0 000-.728L24.49 2.16a.515.515 0 00-.728.728l1.18 1.181h-6.655a.515.515 0 000 1.03zm-15.491 0h6.612a.515.515 0 000-1.03H2.81l1.181-1.18a.515.515 0 00-.728-.729L1.196 4.227c-.2.202-.2.528 0 .728l2.067 2.067a.514.514 0 10.728-.727L2.795 5.099z"/></g><defs><clipPath id="clip0"><path fill="#fff" d="M0 0h30v30H0z"/></clipPath></defs></svg>