<svg width="21" height="13" fill="none" xmlns="http://www.w3.org/2000/svg"><path opacity=".3" d="M10.627 12.5c3.038 0 1.955-1.832 2.19-2.358-.004-.394-.008-.772.006-1.002.193.052.647.27 1.585 1.14 1.448 1.39 1.818 2.22 2.988 2.22h2.153c.683 0 1.038-.27 1.216-.495.171-.218.34-.602.155-1.198-.48-1.437-3.282-3.918-3.456-4.18.026-.048.068-.112.09-.145h-.002c.553-.696 2.664-3.708 2.975-4.913l.001-.006c.168-.55.014-.907-.145-1.109C20.143.152 19.762 0 19.247 0h-2.154c-.72 0-1.268.346-1.544.977-.463 1.12-1.763 3.425-2.738 4.241a50.78 50.78 0 01.006-2.694C12.848 1.245 12.95 0 11.557 0H8.171c-.874 0-1.71.908-.805 1.987.792.945.285 1.471.455 4.093-.665-.68-1.848-2.513-2.684-4.857C4.904.588 4.548 0 3.548 0H1.395C.52 0 0 .454 0 1.213 0 2.918 3.963 12.5 10.627 12.5zM3.548 1.25c.19 0 .21 0 .35.382.857 2.402 2.778 5.957 4.182 5.957 1.054 0 1.054-1.029 1.054-1.417V3.089c-.059-1.021-.449-1.53-.705-1.838l3.07.003c.001.015-.018 3.413.008 4.236 0 1.17.975 1.84 2.497.373 1.605-1.726 2.716-4.306 2.76-4.411.066-.15.123-.201.33-.201h2.162c-.002.002-.002.005-.003.008-.196.874-2.14 3.663-2.79 4.529l-.03.041c-.286.445-.518.937.04 1.629.051.058.184.195.376.385.599.588 2.651 2.6 2.833 3.4-.12.018-.252.005-2.286.009-.433 0-.772-.617-2.064-1.858-1.162-1.077-1.917-1.517-2.603-1.517-1.334 0-1.237 1.03-1.224 2.277.004 1.352-.005.925.005 1.01-.078.029-.301.087-.883.087-5.552 0-9.168-8.393-9.307-9.997.048-.004.71-.001 2.228-.002z" fill="#333"/></svg>