<svg width="20" height="20" fill="none" xmlns="http://www.w3.org/2000/svg"><path d="M17.1 2.874C15.2 1.037 12.7 0 10.037 0 2.396 0-2.402 8.28 1.413 14.865L0 20l5.28-1.377c2.3 1.243 4.183 1.133 4.763 1.206 8.86 0 13.271-10.72 7.044-16.922l.013-.033z" fill="#F8F8F8"/><path d="M10.056 18.125h-.018c-2.652 0-4.346-1.256-4.513-1.329L2.4 17.61l.838-3.038-.2-.312a8.224 8.224 0 01-1.263-4.383c0-7.328 8.954-10.992 14.136-5.813 5.17 5.125 1.54 14.063-5.855 14.063z" fill="#4CAF50"/><path d="M14.59 11.923l-.008.062c-.251-.125-1.473-.722-1.7-.805-.511-.189-.367-.03-1.348 1.094-.146.162-.29.175-.538.062-.25-.125-1.053-.387-2.003-1.237-.74-.663-1.236-1.475-1.383-1.725-.244-.422.267-.482.732-1.362.083-.175.04-.313-.021-.437-.063-.125-.56-1.35-.768-1.838-.2-.487-.406-.425-.56-.425-.48-.042-.831-.035-1.14.287-1.345 1.478-1.006 3.003.145 4.625 2.261 2.96 3.466 3.505 5.67 4.261.595.19 1.137.163 1.566.101.479-.076 1.473-.6 1.68-1.188.213-.588.213-1.075.15-1.188-.061-.112-.225-.175-.475-.287z" fill="#fff"/></svg>