<svg width="21" height="16" fill="none" xmlns="http://www.w3.org/2000/svg"><g opacity=".3" fill="#333"><path d="M8.697 4.253c-.435-.248-.993.052-.993.537v5.833c0 .487.559.782.993.537l5.135-2.912a.611.611 0 000-1.074L8.698 4.253zm.32 5.27V5.89l3.198 1.82-3.198 1.814z"/><path d="M17.416.432c-4.071-.576-9.759-.576-13.832 0C1.954.662.671 1.88.391 3.462c-.521 2.936-.521 5.553 0 8.488.28 1.583 1.564 2.8 3.193 3.03 2.04.288 4.484.433 6.926.433 2.437 0 4.874-.144 6.907-.432 1.627-.23 2.91-1.447 3.192-3.03.521-2.936.521-5.554 0-8.49-.28-1.58-1.564-2.8-3.193-3.03zm1.899 11.31a2.46 2.46 0 01-2.091 2.002c-3.954.56-9.484.56-13.447 0a2.46 2.46 0 01-2.093-2.002c-.502-2.828-.502-5.243 0-8.073a2.463 2.463 0 012.093-2.001c1.98-.28 4.352-.42 6.722-.42 2.372 0 4.744.14 6.724.42a2.46 2.46 0 012.092 2.001c.502 2.83.502 5.245 0 8.074z"/></g></svg>