<svg width="36" height="36" fill="none" xmlns="http://www.w3.org/2000/svg"><path d="M33.888 13.8a98.663 98.663 0 00-1.656-.234 14.583 14.583 0 00-1.123-2.71c.342-.448.68-.896 1.006-1.337a2.496 2.496 0 00-.244-3.23L29.71 4.13a2.496 2.496 0 00-3.23-.244c-.442.327-.89.665-1.337 1.006a14.579 14.579 0 00-2.71-1.123 97.223 97.223 0 00-.234-1.656A2.496 2.496 0 0019.744 0h-3.057c-1.22 0-2.275.908-2.455 2.112-.081.54-.16 1.096-.234 1.656a14.54 14.54 0 00-2.71 1.123 97.4 97.4 0 00-1.337-1.006 2.496 2.496 0 00-3.23.243l-2.16 2.16a2.497 2.497 0 00-.244 3.231c.326.44.663.89 1.005 1.337a14.6 14.6 0 00-1.123 2.71c-.559.074-1.114.153-1.655.234a2.497 2.497 0 00-2.112 2.456v3.056c0 1.22.907 2.275 2.112 2.456.54.08 1.096.16 1.655.234.282.938.659 1.846 1.123 2.71-.342.447-.679.895-1.006 1.337a2.496 2.496 0 00.244 3.229l2.161 2.161a2.496 2.496 0 003.23.243c.442-.326.89-.664 1.337-1.005a14.54 14.54 0 002.71 1.123c.074.56.153 1.115.234 1.656a2.497 2.497 0 002.455 2.112h3.057c1.22 0 2.275-.908 2.455-2.112.081-.541.16-1.097.234-1.656a14.568 14.568 0 002.71-1.123c.446.34.895.678 1.337 1.005.979.725 2.367.62 3.23-.243l2.161-2.16a2.497 2.497 0 00.243-3.23c-.326-.442-.663-.89-1.005-1.337a14.59 14.59 0 001.123-2.71 108.27 108.27 0 001.655-.234A2.497 2.497 0 0036 19.312v-3.056c0-1.22-.908-2.276-2.112-2.456zm-.865 5.087c-.491.07-.992.14-1.495.206a2.475 2.475 0 00-2.073 1.797 11.59 11.59 0 01-1.095 2.643 2.476 2.476 0 00.194 2.738c.308.401.614.805.911 1.203l-1.559 1.56c-.4-.299-.803-.604-1.203-.912a2.476 2.476 0 00-2.739-.194c-.832.472-1.721.84-2.642 1.095a2.475 2.475 0 00-1.798 2.073 102.22 102.22 0 01-.206 1.495h-2.205c-.071-.49-.14-.992-.206-1.494a2.476 2.476 0 00-1.798-2.074 11.581 11.581 0 01-2.642-1.095 2.476 2.476 0 00-2.739.194c-.4.308-.803.613-1.203.912l-1.56-1.56c.298-.399.604-.802.913-1.203.61-.795.687-1.87.193-2.739a11.589 11.589 0 01-1.095-2.642 2.476 2.476 0 00-2.073-1.798 88.556 88.556 0 01-1.495-.206v-2.205c.491-.071.992-.14 1.495-.206a2.476 2.476 0 002.073-1.797c.254-.922.622-1.81 1.095-2.643a2.477 2.477 0 00-.194-2.739c-.308-.4-.614-.804-.911-1.203l1.559-1.559c.4.299.803.604 1.203.912.794.612 1.87.688 2.739.194a11.595 11.595 0 012.642-1.095 2.475 2.475 0 001.798-2.073c.065-.503.135-1.004.206-1.495h2.205c.071.49.14.992.206 1.494.13.995.835 1.809 1.798 2.074.92.254 1.81.622 2.642 1.095a2.477 2.477 0 002.739-.194c.4-.308.803-.613 1.203-.912l1.56 1.56c-.298.398-.604.801-.913 1.203a2.477 2.477 0 00-.194 2.738 11.6 11.6 0 011.095 2.643 2.476 2.476 0 002.074 1.798c.503.065 1.004.134 1.495.206v2.205z" fill="#fff"/><path d="M18.217 11.44a6.351 6.351 0 00-6.344 6.344 6.351 6.351 0 006.344 6.344 6.351 6.351 0 006.344-6.344 6.351 6.351 0 00-6.344-6.344zm0 9.868a3.528 3.528 0 01-3.524-3.524 3.528 3.528 0 013.524-3.524 3.528 3.528 0 013.524 3.524 3.528 3.528 0 01-3.524 3.524z" fill="#fff"/></svg>