<svg width="21" height="20" fill="none" xmlns="http://www.w3.org/2000/svg"><path opacity=".3" d="M2.369 20h7.703c.362 0 .656-.28.656-.625 0-.133-.008-5.7-.01-5.833 0-.345-.293-.625-.655-.625h-1.97v-2.084h1.97c.362 0 .656-.28.656-.625V7.861c0-2.037 1.74-3.694 3.879-3.694h1.808V6.25h-1.093c-.845 0-1.532.654-1.532 1.458v2.5c0 .345.294.625.656.625h2.66l-.546 2.084h-2.113c-.363 0-.657.28-.657.625v5.833c0 .345.294.625.656.625h4.194C19.938 20 21 18.988 21 17.744V2.256C21 1.012 19.938 0 18.631 0H2.37C1.062 0 0 1.012 0 2.256v15.489C0 18.988 1.062 20 2.369 20zM1.312 2.256c0-.555.474-1.006 1.057-1.006h16.263c.583 0 1.056.45 1.056 1.006v15.489c0 .555-.473 1.006-1.056 1.006h-3.538v-4.584h1.969a.652.652 0 00.637-.474l.875-3.333c.103-.394-.21-.777-.637-.777h-2.844V7.708c0-.113.1-.208.219-.208h1.75c.362 0 .656-.28.656-.625V3.542c0-.345-.294-.625-.657-.625h-2.464c-2.863 0-5.192 2.218-5.192 4.944v1.722H7.437c-.362 0-.656.28-.656.625v3.334c0 .345.294.625.657.625h1.968v4.583H2.37c-.583 0-1.057-.45-1.057-1.006V2.256z" fill="#333"/></svg>