<svg width="13" height="13" fill="none" xmlns="http://www.w3.org/2000/svg"><path d="M12.4 6.22c.18.18.27.39.27.63 0 .22-.1.4-.3.54-.18.14-.41.19-.69.15l-2.34.15-1.53.06.06 2.64c0 .4-.05.75-.15 1.05 0 .5-.2.86-.6 1.08-.12.1-.25.15-.39.15-.34 0-.57-.56-.69-1.68-.14-.68-.24-1.75-.3-3.21l-2.64.06c-.4 0-.75-.05-1.05-.15-.5 0-.86-.2-1.08-.6a.597.597 0 01-.15-.39c0-.34.56-.57 1.68-.69.68-.14 1.73-.24 3.15-.3-.02-.62-.03-1.38-.03-2.28 0-1.14.2-1.92.6-2.34.18-.18.39-.27.63-.27s.43.09.57.27c.14.18.19.42.15.72l.15 2.34.06 1.47c.62-.02 1.38-.03 2.28-.03 1.12 0 1.9.21 2.34.63z" fill="#909090"/></svg>