<svg width="72" height="72" fill="none" xmlns="http://www.w3.org/2000/svg"><path d="M70.149 23.088a6.335 6.335 0 00-8.95 0l-5.966 5.965-.106.107V10.687a2.11 2.11 0 00-2.11-2.109h-2.109V2.11A2.11 2.11 0 0048.798 0H2.112a2.11 2.11 0 00-2.11 2.11v59.203a2.11 2.11 0 002.11 2.109H8.72v6.469A2.11 2.11 0 0010.83 72h42.187a2.11 2.11 0 002.11-2.11V47.06l7.563-7.564 1.492 1.492c.822.822.822 2.16 0 2.983l-5.967 5.966a2.11 2.11 0 002.983 2.983l5.967-5.966a6.335 6.335 0 000-8.95l-1.492-1.491 4.475-4.475a6.336 6.336 0 000-8.95zM9.337 21.853a2.13 2.13 0 00-.616 1.49v35.86h-4.5V4.219H46.69v4.36H23.487c-.544 0-1.088.216-1.487.613l-.006.005L9.337 21.853zm12.04-6.073v5.454h-5.454l5.454-5.454zm29.531 52.001H12.94V25.453h10.546a2.11 2.11 0 002.11-2.11V12.798h25.312V33.38L34.351 49.936a2.17 2.17 0 00-.47.714l-3.918 9.885a2.11 2.11 0 002.738 2.738l9.885-3.919h.003a2.17 2.17 0 00.712-.469l7.607-7.608v16.504zm-.15-22.32l-7.914 7.915a8.132 8.132 0 00-2.983-2.983l7.914-7.915 2.983 2.983zM39.46 56.056l-3.777 1.497 1.498-3.777a3.877 3.877 0 012.28 2.28zm14.282-13.578l-2.984-2.983 5.967-5.966 2.983 2.983-5.966 5.966zm13.423-13.424l-4.474 4.475-2.983-2.983 4.474-4.475a2.112 2.112 0 012.983 0 2.11 2.11 0 010 2.983z" fill="#fff"/><path d="M44.58 29.672H19.268a2.11 2.11 0 100 4.219H44.58a2.11 2.11 0 000-4.22zm-8.437 8.438H19.268a2.11 2.11 0 100 4.218h16.875a2.11 2.11 0 000-4.219zm-8.438 8.437h-8.437a2.11 2.11 0 100 4.219h8.437a2.11 2.11 0 000-4.22zM44.58 21.234H31.924a2.11 2.11 0 000 4.22H44.58a2.11 2.11 0 000-4.22zM29.197 53.493a2.11 2.11 0 00-2.983 0l-4.837 4.837-2.727-2.728a2.11 2.11 0 10-2.983 2.983l4.218 4.219c.412.412.952.618 1.492.618s1.08-.206 1.491-.618l6.329-6.328a2.11 2.11 0 000-2.983z" fill="#fff"/></svg>