<svg width="74" height="75" fill="none" xmlns="http://www.w3.org/2000/svg"><path d="M41.914 37.039v-1.445c0-5.281-2.997-9.874-7.38-12.17a8.637 8.637 0 002.321-5.897c0-4.781-3.89-8.672-8.671-8.672-4.782 0-8.672 3.89-8.672 8.672 0 2.276.882 4.348 2.32 5.896-4.382 2.297-7.379 6.89-7.379 12.17v1.446c0 1.197.97 2.168 2.168 2.168h23.125c1.197 0 2.168-.97 2.168-2.168zM28.184 13.19a4.34 4.34 0 014.335 4.336 4.34 4.34 0 01-4.335 4.336 4.34 4.34 0 01-4.336-4.336 4.34 4.34 0 014.335-4.336zm-9.367 21.68c.37-4.844 4.43-8.672 9.366-8.672 4.938 0 8.997 3.828 9.367 8.672H18.817z" fill="#fff"/><path d="M68.941 45.133h-3.613v-2.168c0-2.79-2.27-5.059-5.059-5.059h-3.902V10.879c0-5.977-4.863-10.84-10.84-10.84H2.168A2.17 2.17 0 000 2.207v69.664c0 1.197.97 2.168 2.168 2.168h66.773c2.79 0 5.059-2.27 5.059-5.059V50.191c0-2.79-2.27-5.058-5.059-5.058zm-8.672-2.891c.399 0 .723.324.723.723v2.168H50.875v-2.168c0-.399.324-.723.722-.723h8.672zM47.695 4.748a6.535 6.535 0 013.963 3.963h-3.963V4.748zm-9.776 64.955H4.336V4.375h39.023v6.504c0 1.197.97 2.168 2.168 2.168h6.504v24.859h-.434a5.064 5.064 0 00-5.058 5.059v2.168h-3.614a5.064 5.064 0 00-5.058 5.058v18.79c0 .245.019.486.052.722zm31.745-.723a.723.723 0 01-.723.723H42.925a.723.723 0 01-.722-.723V58.14h4.336v2.168a2.168 2.168 0 004.336 0V58.14h10.117v2.168a2.168 2.168 0 004.336 0V58.14h4.336v10.84zm0-15.176H42.203v-3.613c0-.398.324-.723.722-.723h26.016c.398 0 .723.325.723.723v3.613z" fill="#fff"/><path d="M13.73 43.542h-2.89a2.168 2.168 0 000 4.336h2.89a2.168 2.168 0 000-4.336zm18.79 0H22.401a2.168 2.168 0 100 4.336H32.52a2.168 2.168 0 000-4.336zm-18.79 8.672h-2.89a2.168 2.168 0 000 4.336h2.89a2.168 2.168 0 000-4.336zm18.79 0H22.401a2.168 2.168 0 100 4.336H32.52a2.168 2.168 0 000-4.336zm-18.79 8.672h-2.89a2.168 2.168 0 000 4.336h2.89a2.168 2.168 0 100-4.336zm18.79 0H22.401a2.168 2.168 0 000 4.336H32.52a2.168 2.168 0 100-4.336z" fill="#fff"/></svg>