<svg width="72" height="72" fill="none" xmlns="http://www.w3.org/2000/svg"><path d="M69.89 0H2.11A2.11 2.11 0 000 2.11v67.78A2.11 2.11 0 002.11 72h67.78A2.11 2.11 0 0072 69.89V2.11A2.11 2.11 0 0069.89 0zm-2.109 4.219v8.678h-8.678V4.22h8.678zm-63.562 0h50.665v8.678H4.219V4.22zM67.78 67.78H4.22V17.116h63.56v50.665z" fill="#fff"/><path d="M12.5 39.47h14.725a2.11 2.11 0 002.11-2.11V27.187a2.11 2.11 0 00-2.11-2.11H12.5a2.11 2.11 0 00-2.11 2.11V37.36a2.11 2.11 0 002.11 2.11zm2.11-10.175h10.506v5.956H14.609v-5.956zm-2.11 20.35h14.725a2.11 2.11 0 000-4.218H12.5a2.11 2.11 0 000 4.218zm47 5.957h-47a2.11 2.11 0 000 4.22h47a2.11 2.11 0 100-4.22zM33.89 27.186v21.18a2.11 2.11 0 002.11 2.11h23.5a2.11 2.11 0 002.11-2.11v-21.18a2.11 2.11 0 00-2.11-2.11H36a2.11 2.11 0 00-2.11 2.11zm4.22 2.109h19.28v16.962H38.11V29.295z" fill="#fff"/></svg>