<svg width="90" height="76" fill="none" xmlns="http://www.w3.org/2000/svg"><path d="M89.637 28.943L73.641 1.685A2.637 2.637 0 0070.05.737L60.462 6.27l-8.635-3.176a9.642 9.642 0 00-8.171.701l-13.113 7.57-11.625-6.71a2.637 2.637 0 00-3.642 1.036L.313 33.59a2.637 2.637 0 001.006 3.53l5.937 3.428-2.977 5.157c-2.181 3.777-.883 8.625 2.895 10.806a7.878 7.878 0 005.577.886 7.877 7.877 0 003.557 4.387 7.877 7.877 0 005.577.887 7.877 7.877 0 003.556 4.386 7.878 7.878 0 005.578.887 7.878 7.878 0 003.556 4.387c3.778 2.18 8.625.882 10.806-2.895l.34-.59 9.895 5.712c3.778 2.181 8.625.882 10.806-2.895a7.866 7.866 0 00.973-2.804c3.365.886 7.046-.538 8.867-3.693a7.861 7.861 0 001.04-3.436 7.917 7.917 0 007.278-3.94 7.917 7.917 0 00-.226-8.273 7.86 7.86 0 002.455-2.619c2.12-3.673.95-8.357-2.589-10.618l4.819-3.966a2.636 2.636 0 00.598-3.37zM46.292 8.363a4.382 4.382 0 013.715-.318l9.794 3.602c.735.27 1.55.2 2.228-.191l8.39-4.843L83.95 29.67l-4.599 3.787-31.67-18.285a2.636 2.636 0 00-2.636 0l-14.576 8.415c-1.213.734-2.919.277-3.602-.965-.734-1.213-.277-2.919.965-3.602l18.46-10.658zM9.811 51.943a2.64 2.64 0 01-.965-3.602l4.394-7.612a2.64 2.64 0 013.602-.965 2.64 2.64 0 01.965 3.602l-4.394 7.611a2.64 2.64 0 01-3.602.966zm9.134 5.273a2.64 2.64 0 01-.965-3.602l6.152-10.656a2.64 2.64 0 013.602-.965 2.64 2.64 0 01.965 3.602L22.546 56.25a2.64 2.64 0 01-3.601.965zm9.133 5.273a2.64 2.64 0 01-.965-3.601l4.395-7.612a2.64 2.64 0 013.601-.965 2.64 2.64 0 01.966 3.602l-4.395 7.611a2.64 2.64 0 01-3.602.965zm9.134 5.274a2.64 2.64 0 01-.965-3.602l2.637-4.567a2.64 2.64 0 013.602-.965 2.64 2.64 0 01.965 3.602l-2.637 4.567a2.64 2.64 0 01-3.602.965zm42.801-12.61a2.64 2.64 0 01-3.601.964l-13.701-7.91a2.637 2.637 0 00-2.637 4.567l10.656 6.152a2.64 2.64 0 01.965 3.602 2.64 2.64 0 01-3.601.965L57.438 57.34a2.637 2.637 0 00-2.637 4.566l6.09 3.516a2.64 2.64 0 01.964 3.602 2.64 2.64 0 01-3.602.965l-9.922-5.729c1.722-3.675.37-8.133-3.209-10.2a7.86 7.86 0 00-3.435-1.04 7.917 7.917 0 00-3.94-7.278 7.86 7.86 0 00-3.436-1.04 7.917 7.917 0 00-3.94-7.278 7.917 7.917 0 00-8.273.227 7.86 7.86 0 00-2.62-2.456c-3.04-1.755-6.772-1.254-9.25.977l-4.06-2.343 12.47-23.248 6.632 3.83-.075.042a7.86 7.86 0 00-3.685 4.804 7.859 7.859 0 00.79 6.002 7.86 7.86 0 004.803 3.685 7.86 7.86 0 006.002-.79L46.363 20.5l34.914 20.158a2.64 2.64 0 01.965 3.602 2.64 2.64 0 01-3.602.965l-10.656-6.153a2.637 2.637 0 00-2.636 4.567l13.7 7.91a2.64 2.64 0 01.965 3.602z" fill="#fff"/></svg>