<svg width="80" height="80" fill="none" xmlns="http://www.w3.org/2000/svg"><path d="M76.5 30H75V17.344A2.344 2.344 0 0072.656 15H70V2.344A2.344 2.344 0 0067.656 0H12.344A2.344 2.344 0 0010 2.344V15H7.344A2.344 2.344 0 005 17.344V30H3.5c-2 0-3.5 2-3.5 4v41.656C0 78 2 80 4.344 80H76c2 0 4-1.844 4-4.344V34c0-2-1-4-3.5-4zM14.687 4.687h50.626V15H14.687V4.687zm-5 15h60.626V30H9.688V19.687zm65.626 55.626H4.686V54.686h70.626v20.626zm0-25.313H4.686V34.687h70.625V50z" fill="#fff"/><path d="M12.344 44.844a2.5 2.5 0 100-5 2.5 2.5 0 000 5zm10 0a2.5 2.5 0 100-5 2.5 2.5 0 000 5zm10 0a2.5 2.5 0 100-5 2.5 2.5 0 000 5zM67.656 40H42.344a2.344 2.344 0 000 4.688h25.312a2.344 2.344 0 000-4.688zm0 19H12.344a2.344 2.344 0 000 4.688h55.312a2.344 2.344 0 000-4.688zm0 8H12.344a2.344 2.344 0 000 4.688h55.312a2.344 2.344 0 000-4.688z" fill="#fff"/></svg>