<svg width="80" height="80" fill="none" xmlns="http://www.w3.org/2000/svg"><path d="M73.117 12.1h-4.676V5.507A5.514 5.514 0 0062.934 0H17.066a5.513 5.513 0 00-5.507 5.507V12.1H6.883A6.89 6.89 0 000 18.983v41.696a6.89 6.89 0 006.883 6.883h24.86l-2.922 7.75h-3.066a2.344 2.344 0 000 4.688h28.49a2.344 2.344 0 000-4.688h-3.066l-2.921-7.75h24.86A6.89 6.89 0 0080 60.679V18.982a6.89 6.89 0 00-6.883-6.882zm0 4.688c1.21 0 2.195.984 2.195 2.195V48.97h-6.87V16.788h4.675zm-56.87-3.907h47.507V48.97H16.246V12.88zm47.507-7.374v2.687H26.749V4.687h36.185a.82.82 0 01.82.82zm-46.688-.82h4.995v3.507h-5.815V5.507a.82.82 0 01.82-.82zm-10.183 12.1h4.676V48.97H4.688V18.983c0-1.21.984-2.195 2.195-2.195zm39.286 58.526H33.831l2.92-7.751h6.497l2.922 7.75zm26.948-12.439H6.883a2.198 2.198 0 01-2.196-2.195v-7.022h70.626v7.022c0 1.21-.985 2.195-2.196 2.195z" fill="#fff"/><path d="M41.998 55.791h-3.997a2.344 2.344 0 000 4.688h3.997a2.344 2.344 0 000-4.688zM21.642 28.506h16.86a2.344 2.344 0 002.344-2.344V18.35a2.344 2.344 0 00-2.344-2.344h-16.86a2.344 2.344 0 00-2.344 2.344v7.812a2.344 2.344 0 002.344 2.344zm2.343-7.813H36.16v3.125H23.985v-3.125zm22.358 0h11.932a2.344 2.344 0 000-4.687H46.343a2.344 2.344 0 100 4.687zm0 7.812h11.932a2.344 2.344 0 000-4.688H46.343a2.344 2.344 0 000 4.688zm-24.701 7.812h36.633a2.344 2.344 0 000-4.687H21.642a2.344 2.344 0 000 4.687zm36.675 3.125H21.684a2.344 2.344 0 000 4.688h36.633a2.344 2.344 0 000-4.688z" fill="#fff"/></svg>