<svg width="92" height="88" fill="none" xmlns="http://www.w3.org/2000/svg"><path d="M88.945 12.53L14.603.484a2.344 2.344 0 00-2.689 1.939l-9.443 58.27a2.344 2.344 0 001.939 2.689l28.165 4.564-1.171 7.229-.667-.108a2.344 2.344 0 00-.75 4.627l19.345 3.135a2.344 2.344 0 00.75-4.627l-.666-.108 1.171-7.229 28.165 4.564a2.344 2.344 0 002.689-1.938l9.443-58.27a2.344 2.344 0 00-1.939-2.69zM16.166 5.486l69.716 11.298-6.742 41.603L9.424 47.09l6.742-41.604zM44.79 77.343l-8.758-1.42 1.171-7.228 8.758 1.42-1.172 7.228zm32.4-6.917L7.473 59.13l1.202-7.413L78.39 63.013l-1.201 7.413z" fill="#fff"/><path d="M71.177 21.19l-40.195-6.514a2.344 2.344 0 00-.75 4.627l40.195 6.514a2.344 2.344 0 10.75-4.627zm-3.848 23.744l-15.055-2.44a2.344 2.344 0 10-.75 4.627l15.055 2.44a2.344 2.344 0 10.75-4.627zm1.809-11.162l-15.055-2.44a2.344 2.344 0 10-.75 4.627l15.055 2.44a2.344 2.344 0 10.75-4.627zm-24.31-3.94l-15.885-2.574a2.344 2.344 0 00-2.688 1.939l-1.81 11.162a2.344 2.344 0 001.94 2.688l15.885 2.575a2.344 2.344 0 002.688-1.939l1.81-11.162a2.344 2.344 0 00-1.94-2.689zM40.706 40.62l-11.258-1.825 1.059-6.535 11.258 1.825-1.059 6.535z" fill="#fff"/></svg>