<svg width="30" height="30" fill="none" xmlns="http://www.w3.org/2000/svg"><path d="M5.938 30h18.125A5.944 5.944 0 0030 24.062V5.938A5.944 5.944 0 0024.062 0H5.938A5.944 5.944 0 000 5.938v18.125A5.944 5.944 0 005.938 30zM1.875 5.937a4.067 4.067 0 014.063-4.062h18.125a4.067 4.067 0 014.062 4.063v18.125a4.067 4.067 0 01-4.063 4.062H5.938a4.067 4.067 0 01-4.062-4.063V5.938z" fill="url(#paint0_linear)"/><path d="M15 22.662c4.225 0 7.663-3.437 7.663-7.662S19.225 7.337 15 7.337 7.338 10.775 7.338 15s3.437 7.662 7.662 7.662zm0-13.45A5.794 5.794 0 0120.788 15 5.794 5.794 0 0115 20.787 5.794 5.794 0 019.213 15 5.794 5.794 0 0115 9.212z" fill="url(#paint1_linear)"/><path d="M22.947 9.202c1.233 0 2.161-.925 2.161-2.15 0-1.28-.977-2.152-2.16-2.152-1.232 0-2.16.925-2.16 2.151 0 1.276.972 2.151 2.16 2.151zm.221-2.357c.395.349-.506.772-.506.207 0-.337.459-.25.506-.207z" fill="url(#paint2_linear)"/><defs><linearGradient id="paint0_linear" x1="0" y1="15" x2="24.56" y2="26.559" gradientUnits="userSpaceOnUse"><stop stop-color="#03DAE8"/><stop offset="1" stop-color="#528DFF"/></linearGradient><linearGradient id="paint1_linear" x1="7.338" y1="15" x2="19.884" y2="20.904" gradientUnits="userSpaceOnUse"><stop stop-color="#03DAE8"/><stop offset="1" stop-color="#528DFF"/></linearGradient><linearGradient id="paint2_linear" x1="20.787" y1="7.051" x2="24.319" y2="8.721" gradientUnits="userSpaceOnUse"><stop stop-color="#03DAE8"/><stop offset="1" stop-color="#528DFF"/></linearGradient></defs></svg>