<svg width="30" height="30" fill="none" xmlns="http://www.w3.org/2000/svg"><path d="M3.384 30h11.005c.517 0 .937-.42.937-.938 0-.2-.012-8.55-.014-8.75a.938.938 0 00-.937-.937h-2.813V16.25h2.813c.518 0 .938-.42.938-.938v-3.52a5.548 5.548 0 015.54-5.542h2.584v3.125h-1.562a2.19 2.19 0 00-2.188 2.188v3.75c0 .517.42.937.938.937h3.8l-.781 3.125h-3.019a.938.938 0 00-.938.938v8.75c0 .517.42.937.938.937h5.991A3.387 3.387 0 0030 26.616V3.384A3.387 3.387 0 0026.616 0H3.384A3.387 3.387 0 000 3.384v23.233A3.387 3.387 0 003.384 30zM1.875 3.384a1.51 1.51 0 011.509-1.509h23.233a1.51 1.51 0 011.51 1.509v23.233a1.51 1.51 0 01-1.51 1.51h-5.055V21.25h2.813a.94.94 0 00.91-.71l1.25-5a.938.938 0 00-.91-1.165h-4.063v-2.813c0-.17.143-.312.313-.312h2.5c.517 0 .938-.42.938-.938v-5a.938.938 0 00-.938-.937h-3.521c-4.089 0-7.416 3.327-7.416 7.416v2.584h-2.813a.938.938 0 00-.938.938v5c0 .517.42.937.938.937h2.813v6.875H3.383a1.51 1.51 0 01-1.509-1.509V3.384z" fill="url(#paint0_linear)"/><defs><linearGradient id="paint0_linear" x1="0" y1="15" x2="24.56" y2="26.559" gradientUnits="userSpaceOnUse"><stop stop-color="#03DAE8"/><stop offset="1" stop-color="#528DFF"/></linearGradient></defs></svg>