<svg width="40" height="30" fill="none" xmlns="http://www.w3.org/2000/svg"><path d="M16.566 8.278c-.829-.482-1.89.1-1.89 1.044v11.355c0 .948 1.063 1.523 1.89 1.046l9.781-5.67a1.202 1.202 0 00.002-2.09l-9.783-5.685zm.61 10.26v-7.073l6.091 3.54-6.091 3.532z" fill="url(#paint0_linear)"/><path d="M33.173.84C25.418-.28 14.585-.28 6.827.84A7.194 7.194 0 00.745 6.739c-.993 5.715-.993 10.81 0 16.522a7.192 7.192 0 006.082 5.898c3.886.561 8.54.842 13.191.842 4.644 0 9.285-.279 13.157-.84a7.198 7.198 0 006.08-5.898c.993-5.714.993-10.81 0-16.525A7.194 7.194 0 0033.173.84zm3.617 22.017a4.734 4.734 0 01-3.983 3.896c-7.53 1.088-18.064 1.088-25.614-.002a4.734 4.734 0 01-3.985-3.896c-.956-5.505-.956-10.204 0-15.713a4.737 4.737 0 013.987-3.896c3.77-.543 8.288-.816 12.803-.816 4.519 0 9.037.273 12.807.816a4.734 4.734 0 013.985 3.896c.957 5.509.957 10.208 0 15.714z" fill="url(#paint1_linear)"/><defs><linearGradient id="paint0_linear" x1="14.676" y1="14.999" x2="25.122" y2="19.378" gradientUnits="userSpaceOnUse"><stop stop-color="#03DAE8"/><stop offset="1" stop-color="#528DFF"/></linearGradient><linearGradient id="paint1_linear" x1="0" y1="15" x2="28.699" y2="33.009" gradientUnits="userSpaceOnUse"><stop stop-color="#03DAE8"/><stop offset="1" stop-color="#528DFF"/></linearGradient></defs></svg>