<svg width="20" height="19" fill="none" xmlns="http://www.w3.org/2000/svg"><path opacity=".3" d="M.345 9.331l4.891 2.438c.19.093.412.086.593-.02l4.354-2.53-2.635 2.335a.626.626 0 00-.211.468v5.687c0 .6.766.853 1.125.376l2.114-2.81 5.228 2.977a.626.626 0 00.922-.42l3.26-16.25a.625.625 0 00-.84-.705L.397 8.189a.626.626 0 00-.05 1.142zm18.192-6.874l-2.866 14.28-4.954-2.821a.626.626 0 00-.81.168l-1.32 1.755v-3.536l7.126-6.314c.564-.499-.084-1.386-.729-1.008l-9.491 5.518-3.327-1.657 16.37-6.385z" fill="#333"/></svg>