<svg width="19" height="22" fill="none" xmlns="http://www.w3.org/2000/svg"><path d="M18.296 12.578c.597-5.023-.286-8.194-1.88-9.628h.001C13.846.5 5.161.137 2.084 3.06.702 4.488.216 6.585.162 9.182.11 11.78.046 16.646 4.58 17.966h.004l-.004 2.016s-.031.817.49.98c.597.194.867-.185 2.723-2.402 3.103.27 5.487-.347 5.758-.437.626-.21 4.172-.68 4.745-5.545zM8.1 17.142s-1.964 2.45-2.575 3.085c-.2.207-.42.187-.416-.223 0-.269.015-3.346.015-3.346-3.844-1.102-3.617-5.245-3.576-7.413.042-2.168.439-3.944 1.609-5.14C5.856 1.575 13.47 2.14 15.41 3.964c2.372 2.102 1.527 8.042 1.532 8.245-.487 4.061-3.36 4.319-3.889 4.495-.226.075-2.321.614-4.953.438z" fill="#8E24AA"/><path d="M9.186 4.581c-.321 0-.321.5 0 .504 2.489.02 4.539 1.754 4.561 4.937 0 .336.492.332.488-.004h-.001c-.027-3.43-2.265-5.418-5.048-5.437z" fill="#8E24AA"/><path d="M12.46 9.495c-.008.332.483.348.487.012.041-1.891-1.125-3.448-3.315-3.613-.321-.023-.355.481-.035.505 1.9.144 2.901 1.44 2.863 3.096zm-.525 2.15c-.412-.239-.831-.09-1.005.144l-.362.47c-.184.237-.528.206-.528.206-2.512-.664-3.184-3.293-3.184-3.293s-.03-.356.2-.546l.453-.375c.227-.18.37-.614.139-1.04-.617-1.114-1.03-1.498-1.242-1.793-.221-.277-.555-.34-.901-.152h-.008c-.72.421-1.51 1.21-1.257 2.023.43.857 1.222 3.587 3.746 5.65 1.185.977 3.062 1.977 3.859 2.207l.007.012c.785.262 1.548-.558 1.956-1.3v-.007c.18-.359.12-.699-.143-.921-.469-.457-1.175-.961-1.73-1.285z" fill="#8E24AA"/><path d="M9.975 7.754c.8.046 1.189.465 1.23 1.324.016.336.503.312.488-.023-.053-1.122-.638-1.747-1.692-1.805-.32-.02-.35.485-.026.504z" fill="#8E24AA"/></svg>