<svg width="20" height="20" fill="none" xmlns="http://www.w3.org/2000/svg"><g opacity=".3" fill="#333"><path d="M17.16 2.84A9.635 9.635 0 0010.3 0C9.018 0 7.77.248 6.588.738A9.65 9.65 0 003.443 2.84a9.635 9.635 0 00-2.84 6.858c0 1.545.372 3.08 1.079 4.448l-1.63 4.657a.891.891 0 00.212.932.891.891 0 00.932.213l4.657-1.63a9.727 9.727 0 004.448 1.079 9.636 9.636 0 006.858-2.841A9.635 9.635 0 0020 9.699a9.635 9.635 0 00-2.84-6.858zm-.83 12.887a8.47 8.47 0 01-6.029 2.498 8.547 8.547 0 01-4.002-.997.903.903 0 00-.72-.056l-4.232 1.481 1.481-4.231a.904.904 0 00-.056-.721 8.547 8.547 0 01-.997-4.002A8.47 8.47 0 014.272 3.67 8.47 8.47 0 0110.3 1.173h.001A8.47 8.47 0 0116.33 3.67a8.47 8.47 0 012.497 6.03 8.47 8.47 0 01-2.497 6.028z"/><path d="M13.906 10.566a1.146 1.146 0 00-1.619 0l-.488.488A7.103 7.103 0 018.947 8.2l.488-.488a1.145 1.145 0 000-1.618L8.12 4.78a1.146 1.146 0 00-1.619 0L5.45 5.832c-.602.602-.632 1.638-.084 2.917.476 1.11 1.346 2.33 2.451 3.435 1.106 1.106 2.326 1.976 3.436 2.452.607.26 1.16.39 1.637.39.528 0 .963-.159 1.28-.475l1.05-1.051c.216-.216.335-.503.335-.809a1.14 1.14 0 00-.335-.81l-1.315-1.314zm-.567 3.156c-.172.172-.7.232-1.625-.164-.976-.418-2.066-1.201-3.068-2.203-1.002-1.002-1.785-2.092-2.203-3.068-.396-.925-.336-1.454-.164-1.626L7.31 5.63l1.274 1.274-.61.611a.895.895 0 00-.166 1.042 8.275 8.275 0 003.634 3.635.895.895 0 001.043-.166l.61-.61 1.275 1.274-1.032 1.032z"/></g></svg>