<svg width="36" height="36" viewBox="0 0 36 36" fill="none" xmlns="http://www.w3.org/2000/svg">
<path d="M33.8875 13.7998C33.3467 13.7189 32.7912 13.6403 32.2317 13.5656C31.9498 12.6282 31.5733 11.7193 31.1087 10.856C31.4511 10.4083 31.7885 9.95969 32.1146 9.51904C32.8385 8.54 32.7338 7.15148 31.8712 6.28934L29.71 4.12836C28.8474 3.26566 27.4589 3.16107 26.4801 3.88527C26.038 4.21244 25.5895 4.54973 25.1431 4.89084C24.28 4.42627 23.3713 4.04975 22.4335 3.7677C22.3587 3.20824 22.2804 2.65275 22.1994 2.11203C22.0194 0.908086 20.9636 0 19.7438 0H16.6874C15.4676 0 14.4118 0.908086 14.2318 2.11189C14.151 2.65234 14.0725 3.20797 13.9977 3.76756C13.0599 4.04961 12.151 4.42613 11.2881 4.8907C10.842 4.54945 10.3932 4.21203 9.95123 3.88514C8.97219 3.16094 7.58367 3.26553 6.72138 4.12809L4.56041 6.28893C3.69771 7.15135 3.59285 8.54 4.31705 9.51918C4.64285 9.95969 4.98027 10.4084 5.32248 10.856C4.85818 11.7191 4.48152 12.6279 4.19947 13.5656C3.64016 13.6404 3.08453 13.7189 2.54381 13.7998C1.33973 13.98 0.431641 15.0356 0.431641 16.2556V19.3119C0.431641 20.5317 1.33945 21.5875 2.54354 21.7677C3.0844 21.8486 3.63988 21.9272 4.19934 22.0019C4.48139 22.9395 4.85791 23.8483 5.32234 24.7115C4.98041 25.1588 4.64299 25.6073 4.3165 26.0485C3.59271 27.0272 3.6973 28.416 4.55986 29.278L6.72111 31.4393C7.58354 32.302 8.97205 32.4064 9.95096 31.6824C10.3931 31.3555 10.8415 31.0179 11.2878 30.677C12.1512 31.1415 13.0601 31.518 13.9976 31.8C14.0721 32.3593 14.1507 32.9149 14.2316 33.4558C14.4118 34.6597 15.4676 35.5678 16.6874 35.5678H19.7438C20.9636 35.5678 22.0194 34.66 22.1994 33.4556C22.2803 32.9148 22.3587 32.3593 22.4335 31.7998C23.3711 31.518 24.2799 31.1413 25.1431 30.6767C25.5893 31.0179 26.038 31.3554 26.48 31.6824C27.4587 32.4066 28.8475 32.302 29.7098 31.4394L31.8711 29.2785C32.7336 28.416 32.8384 27.0274 32.1142 26.0483C31.7879 25.6073 31.4505 25.1586 31.1087 24.7116C31.573 23.8485 31.9497 22.9399 32.2317 22.002C32.791 21.9272 33.3467 21.8488 33.8874 21.7678C35.0915 21.5876 35.9996 20.532 35.9996 19.3121V16.2557C35.9994 15.0358 35.0915 13.98 33.8875 13.7998ZM33.0228 18.8866C32.5317 18.9578 32.0306 19.027 31.5279 19.0925C30.5336 19.2222 29.7195 19.928 29.4546 20.8902C29.2007 21.8116 28.8322 22.7006 28.3596 23.5327C27.8659 24.4013 27.942 25.4762 28.5536 26.2715C28.8619 26.6723 29.1677 27.0758 29.4654 27.4745L27.9062 29.0337C27.5063 28.7353 27.1029 28.4296 26.7028 28.122C25.9079 27.5101 24.8328 27.4345 23.9641 27.9277C23.1319 28.4004 22.2428 28.7689 21.322 29.0228C20.3592 29.288 19.6535 30.1021 19.5241 31.0961C19.4586 31.5988 19.3896 32.1001 19.3182 32.5912H17.113C17.0417 32.1001 16.9727 31.599 16.9071 31.0967C16.7773 30.1022 16.0717 29.2882 15.1092 29.0229C14.1881 28.7692 13.2993 28.4007 12.4669 27.9279C11.5981 27.4344 10.523 27.5103 9.72824 28.122C9.32807 28.4297 8.92488 28.7353 8.5247 29.0337L6.96557 27.4745C7.2632 27.0754 7.5689 26.6722 7.87761 26.2709C8.48875 25.4759 8.5649 24.401 8.07135 23.5324C7.59871 22.7004 7.23025 21.8112 6.97637 20.8901C6.71127 19.9276 5.89738 19.222 4.90303 19.0922C4.40031 19.0266 3.8991 18.9577 3.40801 18.8862V16.6812C3.8991 16.61 4.40017 16.5408 4.90289 16.4753C5.89724 16.3455 6.71127 15.6398 6.97623 14.6776C7.23012 13.7564 7.59844 12.8673 8.07121 12.0351C8.5649 11.1665 8.48875 10.0915 7.87748 9.29646C7.56863 8.89506 7.26293 8.49174 6.96557 8.09334L8.5247 6.53406C8.92461 6.83252 9.32793 7.13822 9.72783 7.4457C10.5224 8.05752 11.5975 8.13381 12.4669 7.64012C13.2988 7.16748 14.188 6.79902 15.1089 6.545C16.0717 6.27977 16.7775 5.46574 16.9068 4.47166C16.9724 3.96895 17.0416 3.46787 17.1128 2.97678H19.3181C19.3893 3.46773 19.4584 3.96881 19.5239 4.47125C19.6536 5.46574 20.3594 6.27977 21.3217 6.54486C22.2429 6.79875 23.1321 7.16734 23.9642 7.63998C24.8331 8.13367 25.9081 8.05697 26.7027 7.44584C27.1029 7.13822 27.5061 6.83252 27.9062 6.53406L29.4654 8.09334C29.168 8.49187 28.8623 8.89533 28.5535 9.29688C27.9422 10.0918 27.8662 11.1666 28.3594 12.0352C28.8321 12.8676 29.2005 13.7568 29.4544 14.6777C29.7195 15.6402 30.5334 16.3458 31.5278 16.4756C32.0305 16.5412 32.5317 16.6102 33.0228 16.6816V18.8866Z" fill="white"/>
<path d="M18.2169 11.4399C14.719 11.4399 11.873 14.2857 11.873 17.7838C11.873 21.2821 14.7188 24.1279 18.2169 24.1279C21.715 24.1279 24.5608 21.2821 24.5608 17.7838C24.5608 14.2857 21.715 11.4399 18.2169 11.4399ZM18.2169 21.3078C16.274 21.3078 14.693 19.7269 14.693 17.7837C14.693 15.8405 16.2739 14.2598 18.2169 14.2598C20.16 14.2598 21.7407 15.8406 21.7409 17.7837C21.7409 19.7269 20.16 21.3078 18.2169 21.3078Z" fill="white"/>
</svg>
