<svg width="47" height="47" viewBox="0 0 47 47" fill="none" xmlns="http://www.w3.org/2000/svg">
<path d="M44.9592 27.4128C44.2232 26.9705 43.4679 26.5259 42.7125 26.09C42.8901 24.5765 42.8905 23.0455 42.7133 21.5351C43.4715 21.0976 44.2265 20.6532 44.9589 20.2129C46.1921 19.4719 46.7062 17.9083 46.1544 16.5757C46.1544 16.5757 46.1544 16.5757 46.1542 16.5756L44.5449 12.6903C43.993 11.3581 42.5246 10.6156 41.1279 10.9636C40.2979 11.1701 39.4498 11.3899 38.6048 11.6165C37.6613 10.4227 36.5786 9.3403 35.3833 8.39626C35.61 7.55106 35.8298 6.70258 36.0365 5.87229C36.3845 4.47625 35.6421 3.00735 34.3099 2.45541L30.4246 0.846098C29.0924 0.294027 27.5285 0.807679 26.7872 2.04116C26.3457 2.77588 25.901 3.53126 25.4646 4.28786C23.9515 4.11026 22.4208 4.10985 20.9097 4.2869C20.4719 3.52797 20.0274 2.77288 19.5876 2.04116C18.846 0.807953 17.2825 0.294164 15.9502 0.846098L12.0649 2.45541C10.733 3.00721 9.99036 4.47625 10.3383 5.87229C10.5454 6.70422 10.765 7.55243 10.9913 8.39544C9.79758 9.33866 8.71504 10.4216 7.77114 11.6169C6.92403 11.3896 6.07555 11.17 5.2469 10.9636C3.85045 10.6153 2.38182 11.3584 1.82989 12.6905L0.220845 16.5756C-0.330815 17.9079 0.183111 19.4716 1.41604 20.2126C2.1509 20.6542 2.90628 21.0988 3.66274 21.5353C3.48528 23.0483 3.48487 24.579 3.66192 26.0903C2.90477 26.5271 2.14981 26.9716 1.41577 27.4126C0.182837 28.1538 -0.331089 29.7173 0.220708 31.0497L1.83016 34.935C2.38196 36.2671 3.85018 37.0099 5.24717 36.6618C6.07624 36.4553 6.92444 36.2358 7.77004 36.0088C8.71354 37.2025 9.79622 38.2848 10.9915 39.229C10.7646 40.0751 10.5449 40.9236 10.3383 41.7529C9.99036 43.149 10.7327 44.618 12.0649 45.1698L15.9503 46.7793C16.3113 46.9287 16.689 47.0001 17.0628 47.0001C18.0693 47.0001 19.0472 46.4834 19.5881 45.5843C20.0263 44.8552 20.4708 44.1001 20.9108 43.3378C22.4236 43.5151 23.9547 43.5154 25.4657 43.3386C25.9003 44.0922 26.3448 44.8471 26.7878 45.5845C27.529 46.8177 29.0926 47.3313 30.4252 46.7795L34.3104 45.1702C35.6423 44.6184 36.385 43.1494 36.0371 41.7533C35.8316 40.9285 35.612 40.0803 35.3841 39.2302C36.5775 38.287 37.6602 37.2041 38.6044 36.0088C39.449 36.2354 40.2975 36.4549 41.1282 36.6619C42.5242 37.0101 43.9933 36.2676 44.5452 34.9352L46.1545 31.0497C46.706 29.7174 46.1921 28.1538 44.9592 27.4128ZM41.7151 33.5789C40.9171 33.379 40.1036 33.1677 39.2948 32.9497C38.1496 32.6417 36.9412 33.0443 36.216 33.9761C35.3826 35.0466 34.418 36.0113 33.3493 36.8435C32.4187 37.5684 32.0166 38.7764 32.3249 39.9209C32.544 40.7349 32.7553 41.5478 32.9539 42.3403L29.3825 43.8194C28.9578 43.1107 28.5324 42.3865 28.1167 41.6641C27.5251 40.6367 26.3865 40.0675 25.216 40.2124C23.872 40.3793 22.5076 40.3792 21.1618 40.2117C19.9881 40.0659 18.8504 40.6352 18.259 41.6628C17.8381 42.3934 17.4127 43.1181 16.9925 43.8193L13.4212 42.34C13.6209 41.5433 13.8323 40.73 14.0505 39.9199C14.3588 38.7749 13.9559 37.5663 13.0241 36.841C11.9536 36.0077 10.9891 35.0433 10.1567 33.9747C9.43213 33.0438 8.22409 32.6418 7.0792 32.95C6.26942 33.1681 5.45635 33.3794 4.65997 33.579L3.18067 30.0078C3.88614 29.5848 4.61061 29.1595 5.33604 28.7418C6.36348 28.1502 6.93333 27.0119 6.78786 25.8413C6.62065 24.4971 6.62106 23.1329 6.78827 21.7869C6.93428 20.6152 6.36485 19.4757 5.33686 18.884C4.6117 18.4664 3.8871 18.041 3.18053 17.6173L4.65983 14.046C5.45553 14.2455 6.26874 14.4569 7.08002 14.6752C8.22463 14.9836 9.43323 14.5806 10.1589 13.6489C10.9922 12.5784 11.9568 11.6137 13.0252 10.7816C13.956 10.0568 14.3581 8.84866 14.0498 7.70378C13.8324 6.89659 13.6211 6.08366 13.4208 5.28467L16.9921 3.80551C17.4138 4.50907 17.8392 5.2334 18.258 5.96089C18.8497 6.98833 19.9893 7.55899 21.1586 7.41257C22.5022 7.24536 23.8662 7.24536 25.2133 7.41325C26.3857 7.55927 27.5245 6.98915 28.116 5.96171C28.5334 5.23655 28.959 4.51194 29.3823 3.80551L32.9536 5.28467C32.7538 6.08216 32.5424 6.8955 32.3243 7.70501C32.016 8.84989 32.4189 10.0585 33.3507 10.7838C34.421 11.6171 35.3857 12.5815 36.2181 13.6501C36.9427 14.5807 38.1503 14.9828 39.2957 14.6747C40.105 14.4567 40.9179 14.2454 41.7149 14.0456L43.194 17.6168C42.4895 18.0392 41.7652 18.4645 41.0386 18.8829C40.0112 19.4744 39.4412 20.6129 39.5868 21.7835C39.754 23.127 39.7538 24.4913 39.5861 25.8382C39.4404 27.01 40.0101 28.1493 41.0377 28.7408C41.7617 29.1577 42.4864 29.5832 43.194 30.0073L41.7151 33.5789Z" fill="white"/>
<path d="M33.0523 19.7261C33.0523 19.7261 33.0523 19.7261 33.0522 19.726C30.799 14.286 24.5406 11.6934 19.0999 13.9467C13.6601 16.2001 11.0674 22.4591 13.3208 27.899C14.4122 30.5344 16.4649 32.5867 19.1 33.6784C20.4176 34.224 21.802 34.4969 23.1864 34.4969C24.5708 34.4969 25.9552 34.224 27.2731 33.6784C32.7128 31.425 35.3054 25.1661 33.0523 19.7261ZM26.0739 30.7835C24.2121 31.5547 22.1614 31.5546 20.2991 30.7835C18.4372 30.0123 16.987 28.562 16.2157 26.7C14.6233 22.8563 16.4553 18.4337 20.2992 16.8416C21.2405 16.4517 22.2161 16.2671 23.1767 16.2671C26.139 16.2671 28.9551 18.0226 30.1576 20.9251C31.7497 24.7688 29.9176 29.1913 26.0739 30.7835Z" fill="white"/>
</svg>
