<svg width="21" height="20" viewBox="0 0 21 20" fill="none" xmlns="http://www.w3.org/2000/svg">
<path opacity="0.3" d="M2.36862 20H10.0721C10.4344 20 10.7284 19.72 10.7284 19.375C10.7284 19.2417 10.7196 13.675 10.7188 13.5417C10.7188 13.1967 10.4248 12.9167 10.0625 12.9167H8.09375V10.8333H10.0625C10.4248 10.8333 10.7188 10.5533 10.7188 10.2083V7.86083C10.7188 5.82417 12.4591 4.16667 14.5976 4.16667H16.4062V6.25H15.3125C14.4681 6.25 13.7812 6.90417 13.7812 7.70833V10.2083C13.7812 10.5533 14.0752 10.8333 14.4375 10.8333H17.0975L16.5506 12.9167H14.4375C14.0752 12.9167 13.7812 13.1967 13.7812 13.5417V19.375C13.7812 19.72 14.0752 20 14.4375 20H18.6314C19.9377 20 21 18.9883 21 17.7442V2.25583C21 1.01167 19.9377 0 18.6314 0H2.36862C1.06225 0 0 1.01167 0 2.25583V17.745C0 18.9883 1.06225 20 2.36862 20ZM1.3125 2.25583C1.3125 1.70083 1.78587 1.25 2.36862 1.25H18.6322C19.215 1.25 19.6884 1.70083 19.6884 2.25583V17.745C19.6884 18.3 19.215 18.7508 18.6322 18.7508H15.0938V14.1667H17.0625C17.3635 14.1667 17.626 13.9717 17.6995 13.6933L18.5745 10.36C18.6777 9.96583 18.3654 9.58333 17.9375 9.58333H15.0938V7.70833C15.0938 7.595 15.1935 7.5 15.3125 7.5H17.0625C17.4247 7.5 17.7188 7.22 17.7188 6.875V3.54167C17.7188 3.19667 17.4247 2.91667 17.0625 2.91667H14.5976C11.7355 2.91667 9.40625 5.135 9.40625 7.86083V9.58333H7.4375C7.07525 9.58333 6.78125 9.86333 6.78125 10.2083V13.5417C6.78125 13.8867 7.07525 14.1667 7.4375 14.1667H9.40625V18.75H2.36862C1.78587 18.75 1.3125 18.2992 1.3125 17.7442V2.25583Z" fill="#333333"/>
</svg>
