<svg width="21" height="20" viewBox="0 0 21 20" fill="none" xmlns="http://www.w3.org/2000/svg">
<g opacity="0.3">
<path d="M4.15625 20H16.8438C19.1354 20 21 18.2242 21 16.0417V3.95833C21 1.77583 19.1354 0 16.8438 0H4.15625C1.86462 0 0 1.77583 0 3.95833V16.0417C0 18.2242 1.86462 20 4.15625 20ZM1.3125 3.95833C1.3125 2.465 2.58825 1.25 4.15625 1.25H16.8438C18.4118 1.25 19.6875 2.465 19.6875 3.95833V16.0417C19.6875 17.535 18.4118 18.75 16.8438 18.75H4.15625C2.58825 18.75 1.3125 17.535 1.3125 16.0417V3.95833Z" fill="#333333"/>
<path d="M10.5 15.1083C13.4575 15.1083 15.8637 12.8166 15.8637 9.99993C15.8637 7.18327 13.4575 4.8916 10.5 4.8916C7.54248 4.8916 5.13623 7.18327 5.13623 9.99993C5.13623 12.8166 7.54248 15.1083 10.5 15.1083ZM10.5 6.1416C12.7339 6.1416 14.5512 7.87243 14.5512 9.99993C14.5512 12.1274 12.7339 13.8583 10.5 13.8583C8.2661 13.8583 6.44873 12.1274 6.44873 9.99993C6.44873 7.87243 8.2661 6.1416 10.5 6.1416Z" fill="#333333"/>
<path d="M16.0633 6.13494C16.926 6.13494 17.5761 5.51827 17.5761 4.70077C17.5761 3.84827 16.8919 3.2666 16.0641 3.2666C15.2014 3.2666 14.5513 3.88327 14.5513 4.70077C14.5513 5.5516 15.232 6.13494 16.0633 6.13494ZM16.2181 4.56327C16.4946 4.79577 15.8638 5.07827 15.8638 4.7016C15.8638 4.4766 16.1849 4.53494 16.2181 4.56327Z" fill="#333333"/>
</g>
</svg>
