<svg width="10" height="10" viewBox="0 0 10 10" fill="none" xmlns="http://www.w3.org/2000/svg">
<path d="M1.04166 4.375C0.4675 4.375 0 4.8425 0 5.41666V8.75C0 9.32416 0.4675 9.79166 1.04166 9.79166H2.29166C2.52625 9.79166 2.74207 9.7125 2.91666 9.58082V4.375H1.04166Z" fill="#909090"/>
<path d="M10.0006 5.93766C10.0006 5.68725 9.90148 5.45391 9.72939 5.28182C9.92398 5.06891 10.0231 4.78348 9.99606 4.48641C9.94731 3.95682 9.47021 3.54182 8.90939 3.54182H6.33564C6.46314 3.15473 6.6673 2.44516 6.6673 1.87516C6.6673 0.971406 5.89939 0.208496 5.4173 0.208496C4.98439 0.208496 4.67521 0.452246 4.66189 0.462246C4.61273 0.501836 4.58398 0.561836 4.58398 0.625156V2.03807L3.38398 4.63766L3.33398 4.66307V9.12891C3.67314 9.28891 4.1023 9.37516 4.37564 9.37516H8.20023C8.65398 9.37516 9.05107 9.06932 9.14439 8.64725C9.1923 8.43016 9.16439 8.21141 9.06898 8.02141C9.37689 7.86641 9.58398 7.54932 9.58398 7.18766C9.58398 7.04016 9.55023 6.89891 9.48607 6.771C9.79398 6.616 10.0006 6.29891 10.0006 5.93766Z" fill="#909090"/>
</svg>
