<svg width="13" height="13" viewBox="0 0 13 13" fill="none" xmlns="http://www.w3.org/2000/svg">
<path d="M12.4 6.22C12.58 6.4 12.67 6.61 12.67 6.85C12.67 7.07 12.57 7.25 12.37 7.39C12.19 7.53 11.96 7.58 11.68 7.54L9.34 7.69L7.81 7.75L7.87 10.39C7.87 10.79 7.82 11.14 7.72 11.44C7.72 11.94 7.52 12.3 7.12 12.52C7 12.62 6.87 12.67 6.73 12.67C6.39 12.67 6.16 12.11 6.04 10.99C5.9 10.31 5.8 9.24 5.74 7.78L3.1 7.84C2.7 7.84 2.35 7.79 2.05 7.69C1.55 7.69 1.19 7.49 0.97 7.09C0.87 6.97 0.82 6.84 0.82 6.7C0.82 6.36 1.38 6.13 2.5 6.01C3.18 5.87 4.23 5.77 5.65 5.71C5.63 5.09 5.62 4.33 5.62 3.43C5.62 2.29 5.82 1.51 6.22 1.09C6.4 0.909999 6.61 0.819999 6.85 0.819999C7.09 0.819999 7.28 0.909999 7.42 1.09C7.56 1.27 7.61 1.51 7.57 1.81L7.72 4.15L7.78 5.62C8.4 5.6 9.16 5.59 10.06 5.59C11.18 5.59 11.96 5.8 12.4 6.22Z" fill="#909090"/>
</svg>
