<svg width="10" height="8" viewBox="0 0 10 8" fill="none" xmlns="http://www.w3.org/2000/svg">
<path d="M5.00004 2.63623C4.24777 2.63623 3.63641 3.24758 3.63641 3.99986C3.63641 4.75214 4.24777 5.36349 5.00004 5.36349C5.75232 5.36349 6.36367 4.75214 6.36367 3.99986C6.36367 3.24758 5.7523 2.63623 5.00004 2.63623Z" fill="#909090"/>
<path d="M5.00001 0.59082C2.72727 0.59082 0.786371 2.00444 0 3.99991C0.786371 5.99536 2.72727 7.40901 5.00001 7.40901C7.275 7.40901 9.21365 5.99536 10 3.99991C9.21365 2.00444 7.275 0.59082 5.00001 0.59082ZM5.00001 6.27263C3.74546 6.27263 2.72727 5.25444 2.72727 3.99989C2.72727 2.74535 3.74546 1.72718 5.00001 1.72718C6.25456 1.72718 7.27275 2.74537 7.27275 3.99991C7.27275 5.25446 6.25456 6.27263 5.00001 6.27263Z" fill="#909090"/>
</svg>
