<svg width="80" height="80" viewBox="0 0 80 80" fill="none" xmlns="http://www.w3.org/2000/svg">
<path d="M76.5 30H75V17.3438C75 16.0494 73.9506 15 72.6562 15H70V2.34375C70 1.04937 68.9506 0 67.6562 0H12.3438C11.0494 0 10 1.04937 10 2.34375V15H7.34375C6.04938 15 5 16.0494 5 17.3438V30H3.5C1.5 30 0 32 0 34V75.6562C0 78 2 80 4.34375 80H76C78 80 80 78.1562 80 75.6562V34C80 32 79 30 76.5 30ZM14.6875 4.6875H65.3125V15H14.6875V4.6875ZM9.6875 19.6875H12.3438H67.6562H70.3125V30H9.6875V19.6875ZM75.3125 75.3125H4.6875V54.6875H75.3125V75.3125ZM75.3125 50H4.6875V34.6875H7.34375H72.6562H75.3125V50Z" fill="white"/>
<path d="M12.3438 44.8438C13.7245 44.8438 14.8438 43.7245 14.8438 42.3438C14.8438 40.963 13.7245 39.8438 12.3438 39.8438C10.963 39.8438 9.84375 40.963 9.84375 42.3438C9.84375 43.7245 10.963 44.8438 12.3438 44.8438Z" fill="white"/>
<path d="M22.3438 44.8438C23.7245 44.8438 24.8438 43.7245 24.8438 42.3438C24.8438 40.963 23.7245 39.8438 22.3438 39.8438C20.963 39.8438 19.8438 40.963 19.8438 42.3438C19.8438 43.7245 20.963 44.8438 22.3438 44.8438Z" fill="white"/>
<path d="M32.3438 44.8438C33.7245 44.8438 34.8438 43.7245 34.8438 42.3438C34.8438 40.963 33.7245 39.8438 32.3438 39.8438C30.963 39.8438 29.8438 40.963 29.8438 42.3438C29.8438 43.7245 30.963 44.8438 32.3438 44.8438Z" fill="white"/>
<path d="M67.6562 40H42.3438C41.0494 40 40 41.0494 40 42.3438C40 43.6381 41.0494 44.6875 42.3438 44.6875H67.6562C68.9506 44.6875 70 43.6381 70 42.3438C70 41.0494 68.9506 40 67.6562 40Z" fill="white"/>
<path d="M67.6562 59H12.3438C11.0494 59 10 60.0494 10 61.3438C10 62.6381 11.0494 63.6875 12.3438 63.6875H67.6562C68.9506 63.6875 70 62.6381 70 61.3438C70 60.0494 68.9506 59 67.6562 59Z" fill="white"/>
<path d="M67.6562 67H12.3438C11.0494 67 10 68.0494 10 69.3438C10 70.6381 11.0494 71.6875 12.3438 71.6875H67.6562C68.9506 71.6875 70 70.6381 70 69.3438C70 68.0494 68.9506 67 67.6562 67Z" fill="white"/>
</svg>
