<svg width="79" height="79" viewBox="0 0 79 79" fill="none" xmlns="http://www.w3.org/2000/svg">
<path d="M51.1662 2.86818C47.8634 4.08706 46.0207 7.53937 46.7146 10.8873L45.4491 13.6332C43.2465 18.4125 38.8746 22.394 33.7539 24.2838L20.5611 29.1526C17.6946 30.2105 15.9291 32.9508 15.9659 35.845L15.5877 35.9846C10.738 37.7744 8.24862 43.176 10.0384 48.0256C11.8282 52.8753 17.2298 55.3647 22.0794 53.5749L22.4576 53.4354C23.8117 55.0615 25.8445 55.9983 27.9604 55.9714L32.1573 67.3435C33.4996 70.9808 37.551 72.8478 41.1882 71.5054C44.8253 70.1632 46.6924 66.112 45.35 62.4747L41.2927 51.4808L43.4915 50.6693C48.612 48.7796 54.5223 48.9664 59.3017 51.1689L62.0477 52.4345C63.6949 55.4304 67.3388 56.858 70.6415 55.6391C74.2786 54.2968 76.1457 50.2456 74.8034 46.6084L60.1969 7.03015C58.8546 3.39291 54.8034 1.52585 51.1662 2.86818ZM20.4565 49.1773C18.0317 50.0722 15.3309 48.8275 14.436 46.4027C13.5411 43.9779 14.7858 41.2771 17.2106 40.3822L20.4565 49.1773ZM40.9525 64.0977C41.3999 65.3101 40.7775 66.6605 39.5651 67.1079C38.3527 67.5554 37.0023 66.933 36.5549 65.7206L32.4975 54.7266L36.8951 53.1037L40.9525 64.0977ZM39.6698 47.0832L28.6758 51.1405C27.4634 51.588 26.113 50.9656 25.6656 49.7532L20.7967 36.5605C20.3493 35.348 20.9717 33.9976 22.1841 33.5502L33.178 29.4929L39.6698 47.0832ZM59.6818 46.2508C54.7807 44.4068 49.2676 44.1718 44.0895 45.5653L37.5243 27.7754C42.3661 25.4712 46.4048 21.7112 48.9329 17.1252L59.6818 46.2508ZM70.4058 48.2313C70.8532 49.4437 70.2309 50.7941 69.0186 51.2415L69.0185 51.2416C67.806 51.689 66.4556 51.0667 66.0082 49.8543L51.4018 10.276C50.9543 9.0636 51.5767 7.7132 52.7892 7.2657C54.0015 6.81832 55.3519 7.44067 55.7994 8.65308L70.4058 48.2313Z" fill="white"/>
</svg>
