<svg width="90" height="76" viewBox="0 0 90 76" fill="none" xmlns="http://www.w3.org/2000/svg">
<path d="M89.6372 28.9426L73.6413 1.68542C72.9078 0.435794 71.3036 0.0119854 70.049 0.736556L60.4623 6.27138L51.827 3.09519C49.1263 2.10185 46.1479 2.35726 43.6558 3.7962L30.5431 11.3669L18.9181 4.65507C18.3001 4.29823 17.5641 4.20736 16.8775 4.40265C16.1912 4.59812 15.6134 5.06324 15.2761 5.69236L0.31344 33.589C-0.35945 34.8439 0.0854518 36.4068 1.31873 37.1187L7.2561 40.5468L4.27854 45.704C2.09762 49.4814 3.39647 54.3286 7.17383 56.5095C8.92707 57.5216 10.9104 57.7832 12.751 57.3963C13.3362 59.1836 14.5544 60.7708 16.3076 61.7829C18.0608 62.7951 20.0442 63.0566 21.8848 62.6697C22.47 64.4571 23.6881 66.0442 25.4414 67.0564C27.1946 68.0685 29.1779 68.3301 31.0186 67.9432C31.6039 69.7307 32.8221 71.3176 34.5753 72.3298C38.3527 74.5107 43.1998 73.2119 45.3808 69.4345L45.7214 68.8444L55.6163 74.5573C59.3937 76.7382 64.2409 75.4394 66.4218 71.662C66.9365 70.7704 67.255 69.8191 67.3952 68.8576C70.7597 69.7437 74.4407 68.3197 76.262 65.165C76.8892 64.0786 77.2271 62.9037 77.3025 61.7293C80.1807 61.8803 83.0428 60.4514 84.58 57.7888C86.1172 55.1263 85.9236 51.9332 84.3537 49.516C85.3332 48.8635 86.1817 47.9834 86.8089 46.8971C88.9295 43.2241 87.7593 38.5404 84.2203 36.2792L89.0385 32.3127C90.0396 31.489 90.2932 30.0602 89.6372 28.9426ZM46.2925 8.36318C47.4253 7.70892 48.7786 7.59308 50.0068 8.04466L59.801 11.6471C60.5357 11.9173 61.3517 11.8472 62.0295 11.4559L70.4183 6.61257L83.9503 29.6714L79.3514 33.4575L47.6816 15.1728C46.8658 14.7017 45.8606 14.7017 45.0448 15.1728L30.4689 23.5881C29.2558 24.322 27.5504 23.8651 26.8671 22.6231C26.1332 21.4104 26.5903 19.7044 27.8322 19.0213L46.2925 8.36318ZM9.81072 51.9425C8.5516 51.2155 8.11865 49.5999 8.84569 48.3408L13.2402 40.7292C13.9672 39.4701 15.5829 39.0372 16.842 39.7642C18.1011 40.4912 18.534 42.1068 17.807 43.366L13.4125 50.9775C12.6856 52.2366 11.0698 52.6695 9.81072 51.9425ZM18.9445 57.2159C17.6854 56.4889 17.2524 54.8733 17.9795 53.6142L24.1318 42.958C24.8588 41.6987 26.4744 41.2659 27.7336 41.9929C28.9927 42.72 29.4256 44.3356 28.6986 45.5947L22.5462 56.2509C21.8194 57.51 20.2036 57.943 18.9445 57.2159ZM28.0783 62.4894C26.8191 61.7624 26.3862 60.1467 27.1132 58.8876L31.5078 51.2761C32.2348 50.017 33.8504 49.5841 35.1095 50.3111C36.3686 51.0381 36.8016 52.6537 36.0746 53.9128L31.68 61.5243C30.9532 62.7835 29.3376 63.2164 28.0783 62.4894ZM37.2122 67.763C35.9531 67.036 35.52 65.4202 36.247 64.1611L38.8837 59.5941C39.6107 58.335 41.2265 57.902 42.4856 58.6291C43.7448 59.3561 44.1777 60.9717 43.4507 62.2308L40.814 66.7978C40.0871 68.0571 38.4715 68.49 37.2122 67.763ZM80.0135 55.1521C79.2865 56.4112 77.6709 56.8442 76.4118 56.1171L62.711 48.207C61.45 47.4789 59.8374 47.911 59.1093 49.172C58.3812 50.4331 58.8133 52.0457 60.0743 52.7738L70.7303 58.9261C71.9895 59.6532 72.4224 61.2688 71.6954 62.5279C70.9684 63.787 69.3528 64.22 68.0936 63.4929L57.4376 57.3406C56.1765 56.6125 54.5639 57.0446 53.8358 58.3056C53.1077 59.5667 53.5398 61.1793 54.8009 61.9074L60.8901 65.423C62.1492 66.15 62.5822 67.7656 61.8552 69.0248C61.1281 70.2839 59.5125 70.7168 58.2534 69.9898L48.3314 64.2613C50.0527 60.5859 48.7009 56.1277 45.1225 54.0617C44.0362 53.4345 42.8613 53.0965 41.6867 53.0211C41.8377 50.1429 40.409 47.2808 37.7464 45.7434C36.6601 45.1162 35.4852 44.7784 34.3108 44.703C34.4618 41.8247 33.0328 38.9626 30.3703 37.4254C27.7077 35.8882 24.5148 36.0818 22.0977 37.6517C21.4452 36.6722 20.565 35.8237 19.4787 35.1965C16.4384 33.4412 12.7062 33.9416 10.2279 36.1726L6.16871 33.8297L18.6374 10.5824L25.2696 14.4116L25.1954 14.4545C23.3657 15.511 22.0569 17.2167 21.5098 19.2576C20.9632 21.2984 21.2437 23.4301 22.3002 25.2598C23.3566 27.0895 25.0624 28.3984 27.1032 28.9454C29.144 29.4919 31.2757 29.2115 33.1054 28.1551L46.363 20.5009L81.277 40.6588C82.5362 41.3858 82.9691 43.0014 82.2421 44.2605C81.5151 45.5196 79.8995 45.9526 78.6403 45.2256L67.9843 39.0732C66.7232 38.3451 65.1106 38.7772 64.3825 40.0383C63.6545 41.2993 64.0865 42.9119 65.3476 43.64L79.0483 51.5502C80.3076 52.2772 80.7406 53.893 80.0135 55.1521Z" fill="white"/>
</svg>
