<svg width="97" height="97" viewBox="0 0 97 97" fill="none" xmlns="http://www.w3.org/2000/svg">
<path d="M82.4835 50.5951L76.3966 52.0136C72.6207 52.8935 70.2647 56.6813 71.1446 60.4571L75.7547 80.2396C76.0484 81.5002 77.3086 82.284 78.5692 81.9902L93.7865 78.4441C95.047 78.1503 95.8309 76.8901 95.5371 75.6295L90.9271 55.8471C90.0471 52.0712 86.2594 49.7152 82.4835 50.5951ZM77.4605 56.5788L83.5474 55.1603C84.806 54.867 86.0686 55.6523 86.3619 56.9109L86.8938 59.1935L76.2417 61.6759L75.7098 59.3933C75.4165 58.1347 76.2018 56.8721 77.4605 56.5788ZM79.7879 76.8931L77.3056 66.2411L87.9577 63.7587L90.44 74.4108L79.7879 76.8931Z" fill="white"/>
<path d="M79.2819 14.9509C75.9899 12.9034 71.6455 13.9158 69.5978 17.2077L59.8898 32.8153L57.2883 21.6518C56.4084 17.8759 52.6206 15.5199 48.8447 16.3998L42.2079 17.9464C40.656 16.4982 38.4775 15.7719 36.2615 16.1388C34.451 12.8529 30.6118 11.0225 26.7824 11.9149C22.953 12.8073 20.3184 16.1463 20.147 19.8941C17.9972 20.5446 16.3641 22.1591 15.6123 24.1442L8.97549 25.6908C5.19963 26.5707 2.84359 30.3585 3.7235 34.1344L16.5607 89.2209C17.4406 92.9967 21.2284 95.3528 25.0043 94.4729L64.8735 85.1818C68.6494 84.3019 71.0054 80.5141 70.1255 76.7383L64.4034 52.1837L81.5387 24.6352C83.5865 21.343 82.5741 16.9988 79.2819 14.9509ZM19.9054 27.1546C19.6121 25.896 20.3975 24.6334 21.6561 24.3401L23.1778 23.9855C24.4384 23.6917 25.2222 22.4316 24.9285 21.171C24.4396 19.0733 25.7485 16.969 27.8462 16.4801C29.9439 15.9913 32.0483 17.3002 32.5371 19.3979C32.8309 20.6585 34.091 21.4423 35.3516 21.1486L36.8734 20.7939C38.132 20.5006 39.3946 21.286 39.6879 22.5446L39.8652 23.3055L20.0827 27.9155L19.9054 27.1546ZM65.5603 77.8021C65.8536 79.0607 65.0683 80.3233 63.8097 80.6166L23.9404 89.9077C22.6818 90.201 21.4192 89.4156 21.1259 88.157L8.28868 33.0705C7.99538 31.8119 8.78072 30.5493 10.0393 30.256L15.5176 28.9794L16.0495 31.262C16.3433 32.5226 17.6034 33.3064 18.864 33.0126L43.2116 27.3387C44.4722 27.0449 45.2561 25.7848 44.9623 24.5242L44.4304 22.2416L49.9086 20.965C51.1672 20.6717 52.4298 21.457 52.7231 22.7156L56.3885 38.4443L46.4902 54.3576C46.357 54.5716 46.2594 54.8055 46.2009 55.0505L42.7537 69.4673C42.519 70.4485 42.9386 71.4698 43.7953 72.0025C44.3357 72.3386 44.9736 72.4329 45.5657 72.2949C45.9122 72.2142 46.2432 72.0538 46.5297 71.8161L57.9376 62.351C58.1315 62.1901 58.2983 61.999 58.4312 61.7851L60.902 57.8127L65.5603 77.8021ZM52.442 60.8197L48.9479 63.7188L50.0037 59.3032L52.442 60.8197ZM55.6888 57.319L51.7085 54.8432L64.9128 33.6148L68.8931 36.0906L55.6888 57.319ZM71.3689 32.1103L67.3886 29.6345L69.8644 25.6542L73.8446 28.13L71.3689 32.1103ZM77.5584 22.1594L76.3205 24.1495L72.3403 21.6737L73.5782 19.6835C74.261 18.5859 75.709 18.2488 76.8062 18.9312C77.9036 19.6139 78.241 21.062 77.5584 22.1594Z" fill="white"/>
<path d="M28.1927 36.6775L22.8283 45.3016L19.5115 43.2384C18.4125 42.5547 16.9671 42.8915 16.2834 43.9906C15.5997 45.0898 15.9365 46.535 17.0357 47.2187L22.3427 50.5197C22.8923 50.8616 23.5285 50.9484 24.1125 50.8123C24.6965 50.6762 25.2289 50.3171 25.5706 49.7675L32.1729 39.1534C32.8566 38.0543 32.5198 36.609 31.4206 35.9253C30.3219 35.2415 28.8766 35.5783 28.1927 36.6775Z" fill="white"/>
<path d="M31.683 51.6561L26.3186 60.2801L23.0017 58.2169C21.9027 57.5332 20.4574 57.87 19.7737 58.9692C19.09 60.0683 19.4268 61.5135 20.5259 62.1972L25.833 65.4982C26.3826 65.8401 27.0187 65.9269 27.6027 65.7908C28.1868 65.6547 28.7192 65.2956 29.0609 64.746L35.6631 54.1319C36.3468 53.0329 36.01 51.5875 34.9109 50.9038C33.8122 50.22 32.3668 50.5569 31.683 51.6561Z" fill="white"/>
<path d="M35.4543 68.6764C34.3553 67.9927 32.9099 68.3295 32.2262 69.4287L29.9629 73.0675L26.3239 70.804C25.2249 70.1202 23.7795 70.4571 23.0959 71.5562C22.4122 72.6554 22.7489 74.1006 23.8481 74.7843L27.4871 77.0478L25.2236 80.6867C24.5399 81.7859 24.8767 83.2311 25.9759 83.9148C26.5254 84.2566 27.1616 84.3433 27.7457 84.2071C28.3299 84.071 28.8622 83.7121 29.2039 83.1624L31.4674 79.5235L35.1064 81.787C35.6558 82.1289 36.2919 82.2156 36.8761 82.0794C37.4603 81.9433 37.9926 81.5844 38.3342 81.0347C39.0179 79.9355 38.6811 78.4903 37.582 77.8066L33.9432 75.5432L36.2067 71.9043C36.8904 70.8052 36.5536 69.3599 35.4543 68.6764Z" fill="white"/>
</svg>
