<svg width="80" height="80" viewBox="0 0 80 80" fill="none" xmlns="http://www.w3.org/2000/svg">
<path d="M73.117 12.1002H68.4414V5.50719C68.4412 2.47062 65.9708 0 62.9342 0H17.0658C14.0292 0 11.5588 2.47062 11.5588 5.50719V12.1002H6.88297C3.08766 12.1002 0 15.1875 0 18.9825V60.6792C0 64.4742 3.08766 67.5616 6.88297 67.5616H31.7422L28.8212 75.3125H25.7552C24.4608 75.3125 23.4114 76.3619 23.4114 77.6562C23.4114 78.9506 24.4608 80 25.7552 80H54.245C55.5394 80 56.5887 78.9506 56.5887 77.6562C56.5887 76.3619 55.5394 75.3125 54.245 75.3125H51.1789L48.258 67.5616H73.1172C76.9125 67.5616 80.0002 64.4742 80.0002 60.6792V18.9825C80 15.1875 76.9123 12.1002 73.117 12.1002ZM73.117 16.7877C74.3277 16.7877 75.3125 17.7722 75.3125 18.9825V48.9698H68.4412V16.7877H73.117ZM16.2463 12.8814H63.7539V48.9698H16.2463V12.8814ZM63.7537 5.50719V8.19391H26.7486V4.6875H62.9342C63.3861 4.6875 63.7537 5.05531 63.7537 5.50719ZM17.0658 4.6875H22.0611V8.19391H16.2463V5.50719C16.2463 5.05531 16.6139 4.6875 17.0658 4.6875ZM6.88297 16.7877H11.5586V48.9698H4.6875V18.9825C4.6875 17.7722 5.67234 16.7877 6.88297 16.7877ZM46.1695 75.3125H33.8305L36.7514 67.5616H43.2484L46.1695 75.3125ZM73.117 62.8741H6.88297C5.67234 62.8741 4.6875 61.8895 4.6875 60.6792V53.6573H75.3125V60.6792C75.3125 61.8895 74.3277 62.8741 73.117 62.8741Z" fill="white"/>
<path d="M41.9983 55.791H38.001C36.7066 55.791 35.6572 56.8404 35.6572 58.1348C35.6572 59.4291 36.7066 60.4785 38.001 60.4785H41.9983C43.2927 60.4785 44.3421 59.4291 44.3421 58.1348C44.3421 56.8404 43.2927 55.791 41.9983 55.791Z" fill="white"/>
<path d="M21.6416 28.5059H38.5024C39.7968 28.5059 40.8461 27.4565 40.8461 26.1621V18.3496C40.8461 17.0552 39.7968 16.0059 38.5024 16.0059H21.6416C20.3472 16.0059 19.2979 17.0552 19.2979 18.3496V26.1621C19.2979 27.4565 20.3472 28.5059 21.6416 28.5059ZM23.9854 20.6934H36.1586V23.8184H23.9854V20.6934Z" fill="white"/>
<path d="M46.3428 20.6934H58.2754C59.5698 20.6934 60.6192 19.644 60.6192 18.3496C60.6192 17.0552 59.5698 16.0059 58.2754 16.0059H46.3428C45.0484 16.0059 43.999 17.0552 43.999 18.3496C43.999 19.644 45.0484 20.6934 46.3428 20.6934Z" fill="white"/>
<path d="M46.3428 28.5049H58.2754C59.5698 28.5049 60.6192 27.4555 60.6192 26.1611C60.6192 24.8668 59.5698 23.8174 58.2754 23.8174H46.3428C45.0484 23.8174 43.999 24.8668 43.999 26.1611C43.999 27.4555 45.0484 28.5049 46.3428 28.5049Z" fill="white"/>
<path d="M21.6416 36.3174H58.2747C59.5691 36.3174 60.6185 35.268 60.6185 33.9736C60.6185 32.6793 59.5691 31.6299 58.2747 31.6299H21.6416C20.3472 31.6299 19.2979 32.6793 19.2979 33.9736C19.2979 35.268 20.3472 36.3174 21.6416 36.3174Z" fill="white"/>
<path d="M58.3167 39.4424H21.6836C20.3892 39.4424 19.3398 40.4918 19.3398 41.7861C19.3398 43.0805 20.3892 44.1299 21.6836 44.1299H58.3166C59.611 44.1299 60.6603 43.0805 60.6603 41.7861C60.6603 40.4918 59.6111 39.4424 58.3167 39.4424Z" fill="white"/>
</svg>
