<svg width="72" height="72" viewBox="0 0 72 72" fill="none" xmlns="http://www.w3.org/2000/svg">
<path d="M70.1487 23.0877C67.6814 20.6204 63.6665 20.6204 61.1993 23.0877L55.2334 29.0535C55.2333 29.0537 55.2331 29.0537 55.233 29.0538L55.127 29.1599V10.6875C55.127 9.52256 54.1825 8.57812 53.0176 8.57812H50.9082V2.10938C50.9082 0.944437 49.9638 0 48.7988 0H2.11133C0.946391 0 0.00195312 0.944437 0.00195312 2.10938V61.3125C0.00209375 62.4774 0.946391 63.4219 2.11147 63.4219H8.72084V69.8906C8.72084 71.0556 9.66528 72 10.8302 72H53.0177C54.1827 72 55.1271 71.0556 55.1271 69.8906V47.0588L62.6909 39.495L64.1825 40.9866C65.005 41.8089 65.005 43.1473 64.1825 43.9696L58.2163 49.9358C57.3926 50.7596 57.3926 52.0951 58.2163 52.9189C59.04 53.7425 60.3756 53.7427 61.1994 52.9189L67.1656 46.9527C69.633 44.4853 69.633 40.4707 67.1656 38.0033L65.674 36.5117L70.1487 32.037C72.6158 29.5698 72.6159 25.5551 70.1487 23.0877ZM9.33734 21.8534C8.94486 22.2466 8.7207 22.7928 8.7207 23.3436V59.203H4.2207V4.21875H4.22084H46.6896V8.57812H23.4865C22.9431 8.57812 22.3986 8.79497 21.9995 9.19167C21.9977 9.1935 21.9957 9.19519 21.9939 9.19688C21.993 9.19772 9.33734 21.8534 9.33734 21.8534ZM21.3771 15.78V21.2344H15.9227L21.3771 15.78ZM50.9082 67.7812H12.9395V25.4531H23.4863C24.6513 25.4531 25.5957 24.5087 25.5957 23.3438V12.7969H50.9082V33.3787C50.4496 33.8375 35.8301 48.457 34.3513 49.9358C34.161 50.1261 33.99 50.3786 33.8819 50.65L29.963 60.5351C29.6529 61.3174 29.8372 62.2091 30.4324 62.8041C31.028 63.3998 31.92 63.5832 32.7013 63.2734L42.5864 59.3544C42.5874 59.354 42.5883 59.3536 42.5891 59.3532C42.8576 59.2464 43.1114 59.0742 43.3005 58.885L50.9082 51.2774V67.7812ZM50.7584 45.4611L42.8436 53.3759C42.1302 52.1377 41.0988 51.1062 39.8606 50.3928L47.7754 42.478L50.7584 45.4611ZM39.4603 56.0555L35.6834 57.5529L37.1808 53.776C38.233 54.1664 39.07 55.0034 39.4603 56.0555ZM53.7415 42.478L50.7584 39.495L56.7246 33.5288L59.7077 36.5119L53.7415 42.478ZM67.1654 29.054L62.6908 33.5287C61.2389 32.0768 61.1588 31.9967 59.7077 30.5456L64.1824 26.0709C65.0049 25.2484 66.3431 25.2485 67.1654 26.0709C67.988 26.8934 67.988 28.2316 67.1654 29.054Z" fill="white"/>
<path d="M44.5801 29.6719H19.2676C18.1026 29.6719 17.1582 30.6163 17.1582 31.7812C17.1582 32.9462 18.1026 33.8906 19.2676 33.8906H44.5801C45.745 33.8906 46.6894 32.9462 46.6894 31.7812C46.6894 30.6163 45.745 29.6719 44.5801 29.6719Z" fill="white"/>
<path d="M36.1426 38.1094H19.2676C18.1026 38.1094 17.1582 39.0538 17.1582 40.2188C17.1582 41.3837 18.1026 42.3281 19.2676 42.3281H36.1426C37.3075 42.3281 38.2519 41.3837 38.2519 40.2188C38.2519 39.0538 37.3075 38.1094 36.1426 38.1094Z" fill="white"/>
<path d="M27.7051 46.5469H19.2676C18.1026 46.5469 17.1582 47.4913 17.1582 48.6562C17.1582 49.8212 18.1026 50.7656 19.2676 50.7656H27.7051C28.87 50.7656 29.8145 49.8212 29.8145 48.6562C29.8145 47.4913 28.87 46.5469 27.7051 46.5469Z" fill="white"/>
<path d="M44.5801 21.2344H31.9238C30.7589 21.2344 29.8145 22.1788 29.8145 23.3438C29.8145 24.5087 30.7589 25.4531 31.9238 25.4531H44.5801C45.745 25.4531 46.6895 24.5087 46.6895 23.3438C46.6895 22.1788 45.745 21.2344 44.5801 21.2344Z" fill="white"/>
<path d="M29.1965 53.4928C28.3731 52.6691 27.0375 52.6691 26.2137 53.4928L21.377 58.3295L18.6497 55.6022C17.8261 54.7784 16.4904 54.7784 15.6667 55.6022C14.8429 56.426 14.8429 57.7615 15.6667 58.5853L19.8854 62.804C20.2973 63.2159 20.8372 63.4218 21.3769 63.4218C21.9166 63.4218 22.4566 63.2159 22.8684 62.804L29.1965 56.4759C30.0203 55.6521 30.0203 54.3166 29.1965 53.4928Z" fill="white"/>
</svg>
