<svg width="92" height="88" viewBox="0 0 92 88" fill="none" xmlns="http://www.w3.org/2000/svg">
<path d="M88.9453 12.5308L14.6026 0.48332C13.3249 0.276263 12.1212 1.14426 11.9141 2.42197L2.47122 60.6924C2.26416 61.9701 3.13216 63.1739 4.40987 63.3809L32.5752 67.9452L31.4038 75.174L30.7373 75.066C29.4596 74.859 28.2559 75.727 28.0488 77.0047C27.8418 78.2824 28.7098 79.4861 29.9875 79.6932L49.3323 82.8281C50.61 83.0351 51.8137 82.1671 52.0208 80.8894C52.2279 79.6117 51.3599 78.408 50.0822 78.2009L49.4157 78.0929L50.5871 70.8641L78.7525 75.4284C80.0302 75.6354 81.234 74.7674 81.441 73.4897L90.8839 15.2193C91.091 13.9416 90.223 12.7379 88.9453 12.5308ZM16.1664 5.48538L85.8819 16.783L79.1399 58.3864L9.42439 47.0887L16.1664 5.48538ZM44.7886 77.3431L36.0309 75.9239L37.2024 68.695L45.9599 70.1142L44.7884 77.3431L44.7886 77.3431ZM77.1888 70.4263L7.47328 59.1287L8.67455 51.7159L78.3901 63.0135L77.1888 70.4263Z" fill="white"/>
<path d="M71.1768 21.1899L30.9821 14.6762C29.7044 14.4691 28.5007 15.3371 28.2936 16.6148C28.0865 17.8925 28.9545 19.0963 30.2322 19.3033L70.4269 25.817C71.7046 26.0241 72.9084 25.1561 73.1154 23.8784C73.3225 22.6007 72.4546 21.397 71.1768 21.1899Z" fill="white"/>
<path d="M67.3289 44.9338L52.2737 42.4941C50.996 42.287 49.7923 43.155 49.5852 44.4327C49.3782 45.7104 50.2462 46.9141 51.5239 47.1212L66.579 49.5609C67.8567 49.768 69.0605 48.9 69.2675 47.6223C69.4746 46.3446 68.6067 45.1409 67.3289 44.9338Z" fill="white"/>
<path d="M69.1377 33.7717L54.0826 31.332C52.8048 31.1249 51.6011 31.9929 51.3941 33.2706C51.187 34.5483 52.055 35.752 53.3327 35.9591L68.3879 38.3988C69.6656 38.6059 70.8693 37.7379 71.0764 36.4602C71.2834 35.1825 70.4156 33.9788 69.1377 33.7717Z" fill="white"/>
<path d="M44.8284 29.8325L28.9431 27.2582C27.6654 27.0512 26.4617 27.9192 26.2547 29.1969L24.4458 40.3589C24.2388 41.6366 25.1067 42.8403 26.3845 43.0474L42.2697 45.6217C43.5474 45.8287 44.7512 44.9607 44.9582 43.683L46.7671 32.521C46.9741 31.2433 46.1061 30.0395 44.8284 29.8325ZM40.706 40.6196L29.4479 38.7952L30.5069 32.2603L41.765 34.0847L40.706 40.6196Z" fill="white"/>
</svg>
