<svg width="74" height="75" viewBox="0 0 74 75" fill="none" xmlns="http://www.w3.org/2000/svg">
<path d="M41.9139 37.0389V35.5936C41.9139 30.3127 38.9168 25.7196 34.5346 23.4234C35.9733 21.8749 36.8553 19.8026 36.8553 17.5273C36.8553 12.7456 32.9652 8.85547 28.1835 8.85547C23.4019 8.85547 19.5117 12.7456 19.5117 17.5273C19.5117 19.8026 20.3938 21.8749 21.8324 23.4234C17.4503 25.7196 14.4531 30.3127 14.4531 35.5936V37.0389C14.4531 38.2362 15.4238 39.2069 16.6211 39.2069H39.746C40.9432 39.2069 41.9139 38.2362 41.9139 37.0389ZM28.1835 13.1914C30.5743 13.1914 32.5194 15.1365 32.5194 17.5273C32.5194 19.9181 30.5743 21.8632 28.1835 21.8632C25.7927 21.8632 23.8476 19.9181 23.8476 17.5273C23.8476 15.1365 25.7927 13.1914 28.1835 13.1914ZM18.8165 34.8709C19.1868 30.0272 23.2464 26.1991 28.1835 26.1991C33.1207 26.1991 37.1802 30.0272 37.5505 34.8709H18.8165Z" fill="white"/>
<path d="M68.941 45.1326H65.3278V42.9646C65.3278 40.1753 63.0585 37.906 60.2692 37.906H56.3669V10.8788C56.3669 4.90179 51.5041 0.0390625 45.5271 0.0390625H2.16796C0.970666 0.0390625 0 1.00973 0 2.20702V71.8707C0 73.068 0.970666 74.0386 2.16796 74.0386H68.941C71.7303 74.0386 73.9996 71.7694 73.9996 68.9801V50.1911C73.9996 47.4018 71.7303 45.1326 68.941 45.1326ZM60.2692 42.2419C60.6677 42.2419 60.9918 42.5661 60.9918 42.9646V45.1326H50.8747V42.9646C50.8747 42.5661 51.1989 42.2419 51.5974 42.2419H60.2692ZM47.695 4.74786C49.5398 5.40215 51.0038 6.8661 51.6581 8.71089H47.695V4.74786ZM37.9194 69.7027H4.33591V4.37498H43.3591V10.8788C43.3591 12.0761 44.3298 13.0468 45.5271 13.0468H52.031V37.906H51.5974C48.8081 37.906 46.5388 40.1753 46.5388 42.9646V45.1326H42.9255C40.1362 45.1326 37.867 47.4018 37.867 50.1911V68.9801C37.867 69.2255 37.8855 69.4666 37.9194 69.7027ZM69.6637 68.9801C69.6637 69.3785 69.3395 69.7027 68.941 69.7027H42.9255C42.5271 69.7027 42.2029 69.3785 42.2029 68.9801V58.1403H46.5388V60.3083C46.5388 61.5055 47.5095 62.4762 48.7068 62.4762C49.904 62.4762 50.8747 61.5055 50.8747 60.3083V58.1403H60.9918V60.3083C60.9918 61.5055 61.9625 62.4762 63.1598 62.4762C64.3571 62.4762 65.3278 61.5055 65.3278 60.3083V58.1403H69.6637V68.9801ZM69.6637 53.8044H42.2029V50.1911C42.2029 49.7927 42.5271 49.4685 42.9255 49.4685H68.941C69.3395 49.4685 69.6637 49.7927 69.6637 50.1911V53.8044Z" fill="white"/>
<path d="M13.7304 43.5425H10.8398C9.64254 43.5425 8.67188 44.5131 8.67188 45.7104C8.67188 46.9077 9.64254 47.8784 10.8398 47.8784H13.7304C14.9277 47.8784 15.8984 46.9077 15.8984 45.7104C15.8984 44.5131 14.9277 43.5425 13.7304 43.5425Z" fill="white"/>
<path d="M32.5195 43.5425H22.4023C21.205 43.5425 20.2344 44.5131 20.2344 45.7104C20.2344 46.9077 21.205 47.8784 22.4023 47.8784H32.5195C33.7168 47.8784 34.6874 46.9077 34.6874 45.7104C34.6874 44.5131 33.7168 43.5425 32.5195 43.5425Z" fill="white"/>
<path d="M13.7304 52.2144H10.8398C9.64254 52.2144 8.67188 53.185 8.67188 54.3823C8.67188 55.5796 9.64254 56.5503 10.8398 56.5503H13.7304C14.9277 56.5503 15.8984 55.5796 15.8984 54.3823C15.8984 53.185 14.9277 52.2144 13.7304 52.2144Z" fill="white"/>
<path d="M32.5195 52.2144H22.4023C21.205 52.2144 20.2344 53.185 20.2344 54.3823C20.2344 55.5796 21.205 56.5503 22.4023 56.5503H32.5195C33.7168 56.5503 34.6874 55.5796 34.6874 54.3823C34.6874 53.185 33.7168 52.2144 32.5195 52.2144Z" fill="white"/>
<path d="M13.7304 60.8862H10.8398C9.64254 60.8862 8.67188 61.8569 8.67188 63.0542C8.67188 64.2515 9.64254 65.2221 10.8398 65.2221H13.7304C14.9277 65.2221 15.8984 64.2515 15.8984 63.0542C15.8984 61.8569 14.9277 60.8862 13.7304 60.8862Z" fill="white"/>
<path d="M32.5195 60.8862H22.4023C21.205 60.8862 20.2344 61.8569 20.2344 63.0542C20.2344 64.2515 21.205 65.2221 22.4023 65.2221H32.5195C33.7168 65.2221 34.6874 64.2515 34.6874 63.0542C34.6874 61.8569 33.7168 60.8862 32.5195 60.8862Z" fill="white"/>
</svg>
