<svg width="72" height="72" viewBox="0 0 72 72" fill="none" xmlns="http://www.w3.org/2000/svg">
<path d="M69.8906 0H2.10938C0.944437 0 0 0.944437 0 2.10938V69.8906C0 71.0556 0.944437 72 2.10938 72H69.8906C71.0556 72 72 71.0556 72 69.8906V2.10938C72 0.944437 71.0556 0 69.8906 0ZM67.7812 4.21875V12.8974H59.1026V4.21875H67.7812ZM4.21875 4.21875H54.8838V12.8974H4.21875V4.21875ZM67.7812 67.7812H4.21875V17.1162H67.7812V67.7812Z" fill="white"/>
<path d="M12.5 39.4701H27.225C28.3899 39.4701 29.3344 38.5257 29.3344 37.3607V27.1855C29.3344 26.0206 28.3899 25.0762 27.225 25.0762H12.5C11.3351 25.0762 10.3906 26.0206 10.3906 27.1855V37.3607C10.3906 38.5257 11.3351 39.4701 12.5 39.4701ZM14.6094 29.2948H25.1156V35.2512H14.6094V29.2948Z" fill="white"/>
<path d="M12.5 49.6455H27.225C28.3899 49.6455 29.3344 48.7011 29.3344 47.5361C29.3344 46.3712 28.3899 45.4268 27.225 45.4268H12.5C11.3351 45.4268 10.3906 46.3712 10.3906 47.5361C10.3906 48.7011 11.3351 49.6455 12.5 49.6455Z" fill="white"/>
<path d="M59.5005 55.6025H12.5C11.3351 55.6025 10.3906 56.547 10.3906 57.7119C10.3906 58.8769 11.3351 59.8213 12.5 59.8213H59.5007C60.6656 59.8213 61.6101 58.8769 61.6101 57.7119C61.6101 56.547 60.6655 55.6025 59.5005 55.6025Z" fill="white"/>
<path d="M33.8906 27.1855V48.3668C33.8906 49.5317 34.8351 50.4761 36 50.4761H59.5003C60.6652 50.4761 61.6096 49.5317 61.6096 48.3668V27.1855C61.6096 26.0206 60.6652 25.0762 59.5003 25.0762H36C34.8351 25.0762 33.8906 26.0206 33.8906 27.1855ZM38.1094 29.2949H57.3909V46.2574H38.1094V29.2949Z" fill="white"/>
</svg>
