<svg width="64" height="72" viewBox="0 0 64 72" fill="none" xmlns="http://www.w3.org/2000/svg">
<path d="M62.4696 11.9108L51.1771 0.618187C50.7953 0.23625 50.2678 0 49.6852 0H11.484C10.3191 0 9.37463 0.944437 9.37463 2.10938V15.741H3.02344C1.8585 15.741 0.914062 16.6854 0.914062 17.8504V69.8906C0.914062 71.0556 1.8585 72 3.02344 72H60.9785C62.1435 72 63.0879 71.0556 63.0879 69.8906V13.4027C63.0878 12.8199 62.8515 12.2925 62.4696 11.9108ZM51.7946 7.20183L55.8861 11.2933H51.7946V7.20183ZM34.74 19.9598V32.616H5.13281V19.9598H34.74ZM5.13281 36.8346H34.74V67.7812H5.13281V36.8346ZM38.9588 67.7812V17.8504C38.9588 16.6854 38.0143 15.741 36.8494 15.741H13.5934V4.21875H47.5758V13.4027C47.5758 14.5676 48.5203 15.5121 49.6852 15.5121H58.8691V67.7812H38.9588Z" fill="white"/>
<path d="M30.4041 59.6267C30.2386 58.7432 29.4808 58.0559 28.5951 57.945C27.7022 57.8332 26.8138 58.3244 26.4301 59.1369C26.0839 59.87 26.195 60.7538 26.7094 61.3796C27.2745 62.0671 28.238 62.3214 29.071 62.014C30.0245 61.6621 30.6113 60.626 30.4041 59.6267Z" fill="white"/>
<path d="M21.9662 59.6254C21.7735 58.7256 21.0282 58.0319 20.1057 57.9394C19.2013 57.8486 18.3172 58.3733 17.9602 59.2081C17.6341 59.9707 17.7941 60.8755 18.3601 61.481C18.9865 62.1511 19.9998 62.3302 20.8226 61.933C21.6695 61.5239 22.158 60.5489 21.9662 59.6254Z" fill="white"/>
<path d="M13.5283 59.6248C13.3508 58.7959 12.7076 58.1385 11.8727 57.9699C11.0117 57.796 10.1006 58.1976 9.65127 58.9539C9.21941 59.6806 9.26315 60.6106 9.76462 61.2911C10.2987 62.016 11.268 62.3218 12.1222 62.0393C13.1147 61.7111 13.7422 60.6545 13.5283 59.6248Z" fill="white"/>
<path d="M30.403 42.7496C30.2377 41.8851 29.5111 41.2064 28.6452 41.0763C27.7743 40.9454 26.8891 41.3922 26.4754 42.1689C26.0617 42.9454 26.1796 43.9265 26.7722 44.5792C27.3651 45.2322 28.3278 45.4458 29.1418 45.1093C30.0553 44.7316 30.6053 43.7233 30.403 42.7496Z" fill="white"/>
<path d="M21.9673 42.7502C21.7822 41.8862 21.0898 41.2094 20.21 41.0769C19.339 40.9457 18.4533 41.3927 18.0396 42.1694C17.6245 42.9486 17.7468 43.9232 18.3365 44.579C18.9253 45.2341 19.8942 45.4467 20.706 45.1113C21.6191 44.734 22.1692 43.7225 21.9673 42.7502Z" fill="white"/>
<path d="M13.5296 42.7502C13.3609 41.8677 12.6078 41.1805 11.7207 41.0698C10.9394 40.9724 10.1435 41.3365 9.70728 41.9921C9.2089 42.7412 9.24617 43.7503 9.79869 44.4603C10.3581 45.1792 11.3442 45.4533 12.1962 45.1388C13.1502 44.7868 13.7372 43.7499 13.5296 42.7502Z" fill="white"/>
<path d="M30.4046 51.1871C30.2393 50.3225 29.5125 49.6439 28.6468 49.5138C27.7768 49.383 26.8896 49.8292 26.477 50.6063C26.0627 51.3865 26.1833 52.3592 26.7738 53.0159C27.3626 53.671 28.3315 53.8836 29.1434 53.5482C30.0567 53.1708 30.6066 52.1594 30.4046 51.1871Z" fill="white"/>
<path d="M21.9671 51.1877C21.782 50.3237 21.0897 49.6468 20.2099 49.5144C19.3397 49.3833 18.4522 49.8298 18.0394 50.6069C17.6267 51.384 17.7436 52.3636 18.3363 53.0166C18.9286 53.6694 19.8913 53.8853 20.7058 53.5488C21.6189 53.1713 22.169 52.1601 21.9671 51.1877Z" fill="white"/>
<path d="M13.5292 51.1875C13.3568 50.2861 12.5765 49.5931 11.6687 49.5014C10.8679 49.4206 10.0638 49.8253 9.65217 50.517C9.18333 51.3052 9.27994 52.3357 9.89826 53.0165C10.516 53.6967 11.5316 53.8988 12.3623 53.5064C13.2225 53.1 13.7235 52.1232 13.5292 51.1875Z" fill="white"/>
<path d="M11.502 28.3975H28.3713C29.5363 28.3975 30.4807 27.453 30.4807 26.2881C30.4807 25.1231 29.5363 24.1787 28.3713 24.1787H11.502C10.337 24.1787 9.39258 25.1231 9.39258 26.2881C9.39258 27.453 10.3369 28.3975 11.502 28.3975Z" fill="white"/>
</svg>
