<svg width="34" height="20" viewBox="0 0 34 20" fill="none" xmlns="http://www.w3.org/2000/svg">
<path d="M17.2052 20C22.1238 20 20.37 17.0693 20.7497 16.2267C20.744 15.5973 20.7384 14.992 20.761 14.624C21.0727 14.7067 21.8079 15.0573 23.3266 16.4467C25.6711 18.6733 26.2704 20 28.1644 20H31.6508C32.7558 20 33.331 19.5693 33.6185 19.208C33.8962 18.8587 34.1682 18.2453 33.8707 17.2907C33.093 14.992 28.5569 11.0227 28.2749 10.604C28.3174 10.5267 28.3854 10.424 28.4209 10.3707H28.418C29.3133 9.25733 32.7303 4.43867 33.2332 2.51067C33.2346 2.508 33.2361 2.504 33.2361 2.5C33.508 1.62 33.2587 1.04933 33.0009 0.726667C32.6127 0.244 31.9951 0 31.1607 0H27.6743C26.507 0 25.6216 0.553333 25.1739 1.56267C24.4245 3.356 22.3193 7.044 20.7412 8.34933C20.693 6.5 20.7256 5.088 20.7511 4.03867C20.8021 1.992 20.9664 0 18.7097 0H13.2301C11.8163 0 10.4634 1.45333 11.9282 3.17867C13.2089 4.69067 12.3886 5.53333 12.6649 9.728C11.5882 8.64133 9.67289 5.70667 8.31858 1.956C7.93891 0.941333 7.36375 0.00133324 5.74452 0.00133324H2.25814C0.844324 0.00133324 0 0.726666 0 1.94133C0 4.66933 6.41601 20 17.2052 20ZM5.74452 2.00133C6.05193 2.00133 6.0831 2.00133 6.31118 2.61067C7.69808 6.45467 10.809 12.1427 13.0814 12.1427C14.7884 12.1427 14.7884 10.496 14.7884 9.876L14.787 4.94C14.6935 3.30667 14.0617 2.49333 13.6466 2L18.6162 2.00533C18.619 2.028 18.5879 7.46533 18.6304 8.78267C18.6304 10.6533 20.2085 11.7253 22.6721 9.37867C25.2716 6.61733 27.0694 2.48933 27.1416 2.32133C27.2479 2.08133 27.34 2 27.6743 2H31.1607H31.1748C31.1734 2.004 31.1734 2.008 31.172 2.012C30.8532 3.412 27.7069 7.87333 26.6543 9.25867C26.6373 9.28 26.6217 9.30267 26.6061 9.32533C26.1429 10.0373 25.7661 10.824 26.6699 11.9307H26.6713C26.7535 12.024 26.9674 12.2427 27.279 12.5467C28.248 13.488 31.5715 16.7067 31.8661 17.9867C31.6707 18.016 31.4582 17.9947 28.1644 18.0013C27.4632 18.0013 26.915 17.0147 24.8226 15.028C22.9412 13.3053 21.7201 12.6013 20.608 12.6013C18.449 12.6013 18.6063 14.2507 18.6261 16.2453C18.6332 18.408 18.619 17.724 18.6346 17.86C18.5085 17.9067 18.1473 18 17.2052 18C8.21658 18 2.36297 4.572 2.13773 2.00533C2.21564 1.99867 3.28805 2.00267 5.74452 2.00133Z" fill="url(#paint0_linear)"/>
<defs>
<linearGradient id="paint0_linear" x1="-1.1084e-06" y1="10" x2="20.7304" y2="26.5857" gradientUnits="userSpaceOnUse">
<stop stop-color="#03DAE8"/>
<stop offset="1" stop-color="#528DFF"/>
</linearGradient>
</defs>
</svg>
