<svg width="40" height="30" viewBox="0 0 40 30" fill="none" xmlns="http://www.w3.org/2000/svg">
<path d="M16.5658 8.27767C15.7374 7.79592 14.6758 8.37823 14.6758 9.32226V20.6765C14.6758 21.6254 15.7391 22.1996 16.5658 21.7227L26.3474 16.0537C27.1608 15.5817 27.1591 14.4365 26.3491 13.9629L16.5658 8.27767ZM17.1758 18.5371V11.465L23.2674 15.0059L17.1758 18.5371Z" fill="url(#paint0_linear)"/>
<path d="M33.1733 0.840621C25.4183 -0.280207 14.585 -0.280207 6.82667 0.840621C3.72333 1.2883 1.27833 3.65972 0.745 6.73835C-0.248333 12.4528 -0.248333 17.5476 0.745 23.2604C1.27833 26.3407 3.72333 28.7105 6.82667 29.1582C10.7133 29.7194 15.3667 30 20.0183 30C24.6617 30 29.3033 29.721 33.175 29.1598C36.275 28.7121 38.7183 26.3423 39.255 23.2621C40.2483 17.5476 40.2483 12.4512 39.255 6.73673C38.7217 3.65972 36.2767 1.2883 33.1733 0.840621ZM36.79 22.8565C36.435 24.8938 34.835 26.4607 32.8067 26.7527C25.2767 27.8411 14.7433 27.8411 7.19333 26.7511C5.16333 26.4575 3.56167 24.8922 3.20833 22.8549C2.25167 17.3497 2.25167 12.6507 3.20833 7.14224C3.56333 5.10496 5.16333 3.54132 7.195 3.2461C10.965 2.70272 15.4833 2.43022 19.9983 2.43022C24.5167 2.43022 29.035 2.70272 32.805 3.2461C34.835 3.53969 36.4367 5.10496 36.79 7.14224C37.7467 12.6507 37.7467 17.3497 36.79 22.8565Z" fill="url(#paint1_linear)"/>
<defs>
<linearGradient id="paint0_linear" x1="14.6758" y1="14.9994" x2="25.1217" y2="19.3779" gradientUnits="userSpaceOnUse">
<stop stop-color="#03DAE8"/>
<stop offset="1" stop-color="#528DFF"/>
</linearGradient>
<linearGradient id="paint1_linear" x1="-1.304e-06" y1="15" x2="28.6994" y2="33.0089" gradientUnits="userSpaceOnUse">
<stop stop-color="#03DAE8"/>
<stop offset="1" stop-color="#528DFF"/>
</linearGradient>
</defs>
</svg>
