<svg width="30" height="30" viewBox="0 0 30 30" fill="none" xmlns="http://www.w3.org/2000/svg">
<path d="M25.7389 4.26109C22.991 1.51314 19.3382 0 15.4518 0C15.4516 0 15.4507 0 15.4504 0C13.5283 0.000228882 11.6551 0.372391 9.88335 1.10641C8.11135 1.84044 6.52382 2.90176 5.16449 4.26109C2.41677 7.00882 0.903629 10.6622 0.903629 14.5482C0.903629 16.8656 1.46279 19.1686 2.52228 21.2205L0.0769077 28.2065C-0.0954403 28.6993 0.0265537 29.2348 0.395969 29.604C0.654377 29.8627 0.994495 30 1.34423 30C1.49414 30 1.64566 29.9748 1.79352 29.9231L8.77945 27.4779C10.8314 28.5374 13.1344 29.0966 15.4518 29.0966C19.3378 29.0966 22.991 27.5832 25.7389 24.8355C28.4866 22.0878 30 18.4344 30 14.5484C30 10.6622 28.4869 7.00882 25.7389 4.26109ZM24.4947 23.5913C22.0793 26.0069 18.8676 27.337 15.4518 27.337C13.3621 27.337 11.2862 26.8201 9.44824 25.8419C9.11499 25.6647 8.72109 25.6343 8.36747 25.7581L2.02057 27.9794L4.2421 21.6325C4.36592 21.2785 4.33525 20.8846 4.1581 20.5515C3.18009 18.7141 2.66304 16.6381 2.66304 14.5482C2.66304 11.1324 3.9933 7.92068 6.40869 5.50529C8.82386 3.09013 12.0351 1.75987 15.4507 1.75941H15.4518C18.8679 1.75941 22.0793 3.08968 24.4947 5.50529C26.9103 7.92068 28.2406 11.1321 28.2406 14.5482C28.2406 17.9642 26.9103 21.1759 24.4947 23.5913Z" fill="url(#paint0_linear)"/>
<path d="M20.8576 15.8487C20.1884 15.1794 19.0994 15.1794 18.4301 15.8487L17.6981 16.5806C15.8806 15.5903 14.4098 14.1195 13.4192 12.3019L14.1512 11.5699C14.8206 10.9007 14.8206 9.81167 14.1512 9.14241L12.1787 7.16991C11.5094 6.50066 10.4204 6.50066 9.75114 7.16991L8.17322 8.74782C7.26937 9.65168 7.22428 11.2056 8.0462 13.1234C8.75985 14.7885 10.0658 16.6186 11.7236 18.2764C13.3814 19.9342 15.2116 21.2402 16.8767 21.9539C17.7879 22.3443 18.6166 22.5391 19.3328 22.5391C20.1241 22.5391 20.7777 22.3013 21.2522 21.8268L22.8301 20.2487V20.2489C23.1545 19.9246 23.333 19.4936 23.333 19.0352C23.333 18.5765 23.1545 18.1455 22.8301 17.8214L20.8576 15.8487ZM20.008 20.5826C19.7501 20.8406 18.9568 20.931 17.57 20.3368C16.1056 19.7092 14.4711 18.5355 12.9678 17.0322C11.4645 15.5289 10.2911 13.8947 9.66347 12.4303C9.06907 11.0435 9.15948 10.25 9.41743 9.99203L10.9651 8.44432L12.8767 10.3562L11.9605 11.2726C11.5463 11.6869 11.4462 12.3152 11.712 12.8361C12.9166 15.1982 14.8019 17.0835 17.1639 18.2881C17.6851 18.5538 18.3134 18.454 18.7277 18.0395L19.6439 17.1233L21.5557 19.0352L20.008 20.5826Z" fill="url(#paint1_linear)"/>
<defs>
<linearGradient id="paint0_linear" x1="-9.77999e-07" y1="15" x2="24.5602" y2="26.5587" gradientUnits="userSpaceOnUse">
<stop stop-color="#03DAE8"/>
<stop offset="1" stop-color="#528DFF"/>
</linearGradient>
<linearGradient id="paint1_linear" x1="7.46094" y1="14.6035" x2="20.4547" y2="20.7191" gradientUnits="userSpaceOnUse">
<stop stop-color="#03DAE8"/>
<stop offset="1" stop-color="#528DFF"/>
</linearGradient>
</defs>
</svg>
