<svg width="34" height="30" viewBox="0 0 34 30" fill="none" xmlns="http://www.w3.org/2000/svg">
<path d="M0.586774 14.5676L8.90143 18.7456C9.22302 18.9056 9.6027 18.8942 9.91012 18.7128L17.311 14.3748L12.8314 18.3771C12.6033 18.5814 12.4729 18.8728 12.4729 19.1799V28.9285C12.4729 29.957 13.7749 30.3898 14.3855 29.5727L17.9797 24.7548L26.8681 29.8584C27.4915 30.2198 28.2905 29.857 28.435 29.1385L33.9786 1.28515C34.1443 0.448123 33.3184 -0.234641 32.5505 0.0767453L0.67461 12.6108C-0.181081 12.9478 -0.236333 14.1548 0.586774 14.5676ZM31.5135 2.78495L26.6414 27.263L18.2191 22.4266C17.7601 22.1623 17.1693 22.2794 16.8435 22.7137L14.598 25.7232V19.6612L26.7123 8.83984C27.6714 7.98424 26.5692 6.46302 25.4741 7.1115L9.33777 16.5702L3.68228 13.7292L31.5135 2.78495Z" fill="url(#paint0_linear)"/>
<defs>
<linearGradient id="paint0_linear" x1="-1.1084e-06" y1="15" x2="26.4696" y2="29.1183" gradientUnits="userSpaceOnUse">
<stop stop-color="#03DAE8"/>
<stop offset="1" stop-color="#528DFF"/>
</linearGradient>
</defs>
</svg>
