<svg width="30" height="30" viewBox="0 0 30 30" fill="none" xmlns="http://www.w3.org/2000/svg">
<g opacity="0.4" clip-path="url(#clip0)">
<path d="M26.3789 10.3748H26.3332C25.6993 10.3771 25.09 10.6209 24.6296 11.0562C24.2701 10.0061 23.3168 9.25384 22.1968 9.25384C21.5031 9.26289 20.8438 9.55722 20.3745 10.068C19.9505 9.17316 19.0748 8.57319 18.0654 8.57319H18.0166C17.4358 8.57319 16.8702 8.74612 16.4842 9.08996V2.72762C16.4842 1.22356 15.3179 0 13.8945 0C12.4727 0 11.3109 1.22255 11.3099 2.72561L11.2989 15.3085L10.5355 14.3806C9.92125 13.6157 9.01665 13.1407 8.03841 13.0688C7.07977 13.0032 6.13672 13.337 5.43269 13.991L4.81765 14.5012C4.6309 14.656 4.57761 14.9202 4.68946 15.1351L10.6708 26.6186C11.7588 28.7091 13.8287 30 16.0725 30H22.7812C26.1831 30 28.9537 27.0595 28.9573 23.4353C28.9588 21.8162 28.9605 20.6117 28.9615 19.6307C28.9651 16.9893 28.9663 16.0018 28.9595 13.0942C28.956 11.5941 27.7986 10.3748 26.3789 10.3748ZM27.932 19.6332C27.931 20.6142 27.9293 21.8152 27.9277 23.4343C27.9247 26.4912 25.6161 28.9705 22.7812 28.9705H16.0725C14.2138 28.9705 12.4938 27.892 11.5837 26.1436L5.79413 15.0248L6.09927 14.7739C6.1058 14.7684 6.11259 14.7636 6.11887 14.7576C6.61578 14.2901 7.28487 14.05 7.96577 14.0955C8.66125 14.1488 9.30369 14.4889 9.73877 15.0343L11.4125 17.072C11.5505 17.2399 11.779 17.303 11.9835 17.2298C12.1881 17.1567 12.3249 16.9629 12.3251 16.7455L12.3349 2.72661C12.3354 1.7911 13.04 1.02977 13.895 1.02977C14.7499 1.02977 15.4547 1.79135 15.4547 2.72762V11.1814C15.4547 11.2106 15.4534 11.2397 15.4534 11.2691C15.4534 11.282 15.4547 11.294 15.4547 11.3063V14.9215C15.4547 15.2057 15.6851 15.4362 15.9694 15.4362C16.2537 15.4362 16.4842 15.2057 16.4842 14.9215V11.1988C16.4842 10.2954 17.1832 9.60271 18.0166 9.60271H18.0654C18.9205 9.60271 19.6371 10.3334 19.6371 11.2699V14.5766C19.6371 14.8609 19.8675 15.0914 20.1518 15.0914C20.4361 15.0914 20.6666 14.8609 20.6666 14.5766V11.982C20.6666 11.0457 21.3533 10.2839 22.2134 10.2839C23.0687 10.2839 23.7551 11.0457 23.7551 11.982V14.4298C23.7551 14.7141 23.9856 14.9446 24.2699 14.9446C24.5542 14.9446 24.7846 14.7141 24.7846 14.4298V13.1045C24.7846 12.168 25.4779 11.4044 26.3332 11.4044H26.3789C27.232 11.4044 27.928 12.1649 27.93 13.0984C27.9368 16.0043 27.9355 16.9931 27.932 19.6332Z" fill="black"/>
<path d="M18.2858 5.09864H24.9573L23.7611 6.2948C23.6279 6.42424 23.5746 6.61527 23.6219 6.79473C23.6691 6.97444 23.8094 7.11469 23.9891 7.16195C24.1685 7.20895 24.3596 7.15566 24.489 7.02245L26.5563 4.95537C26.7574 4.75429 26.7574 4.4283 26.5563 4.22747L24.489 2.16039C24.2877 1.96133 23.9634 1.96233 23.7634 2.1624C23.563 2.36273 23.562 2.68696 23.7611 2.88829L24.9419 4.06912H18.2858C18.0015 4.06912 17.771 4.29961 17.771 4.58388C17.771 4.86815 18.0015 5.09864 18.2858 5.09864Z" fill="black"/>
<path d="M2.7951 5.09864H9.40728C9.69156 5.09864 9.92204 4.86815 9.92204 4.58388C9.92204 4.29961 9.69156 4.06912 9.40728 4.06912H2.81043L3.99126 2.88829C4.19033 2.68696 4.18932 2.36273 3.989 2.1624C3.78892 1.96233 3.46469 1.96133 3.26336 2.16039L1.19603 4.22747C0.995204 4.42855 0.995204 4.75454 1.19603 4.95537L3.26336 7.02245C3.39305 7.1539 3.58332 7.20568 3.76178 7.15818C3.94024 7.11092 4.07948 6.97142 4.12699 6.79297C4.17449 6.61451 4.12271 6.42449 3.99126 6.29455L2.7951 5.09864Z" fill="black"/>
</g>
<defs>
<clipPath id="clip0">
<rect width="30" height="30" fill="white"/>
</clipPath>
</defs>
</svg>
