<svg width="20" height="19" viewBox="0 0 20 19" fill="none" xmlns="http://www.w3.org/2000/svg">
<path opacity="0.3" d="M0.345151 9.33097L5.23599 11.7685C5.42515 11.8618 5.64849 11.8551 5.82932 11.7493L10.1827 9.21847L7.54765 11.5535C7.41349 11.6726 7.33682 11.8426 7.33682 12.0218V17.7093C7.33682 18.3093 8.10265 18.5618 8.46182 18.0851L10.576 15.2743L15.8043 18.2518C16.171 18.4626 16.641 18.251 16.726 17.8318L19.9868 1.58181C20.0843 1.09347 19.5985 0.695139 19.1468 0.876805L0.396818 8.18931C-0.106515 8.38597 -0.139015 9.09014 0.345151 9.33097ZM18.5368 2.45681L15.671 16.7376L10.7168 13.916C10.4468 13.7618 10.0993 13.8301 9.90765 14.0835L8.58682 15.8393V12.3026L15.7127 5.9893C16.2768 5.49014 15.6285 4.60264 14.9843 4.98097L5.49265 10.4993L2.16598 8.84181L18.5368 2.45681Z" fill="#333333"/>
</svg>
