<svg width="19" height="22" viewBox="0 0 19 22" fill="none" xmlns="http://www.w3.org/2000/svg">
<path d="M18.2964 12.5778C18.8931 7.55526 18.0097 4.38443 16.4164 2.95026L16.4172 2.94943C13.8456 0.500265 5.16055 0.137765 2.08389 3.05943C0.702221 4.4886 0.215554 6.58609 0.162221 9.18276C0.108888 11.7803 0.0455544 16.6461 4.57972 17.9661H4.58389L4.57972 19.9819C4.57972 19.9819 4.54889 20.7986 5.07055 20.9628C5.66722 21.1561 5.93722 20.7769 7.79305 18.5603C10.8964 18.8294 13.2797 18.2128 13.5506 18.1228C14.1772 17.9128 17.7231 17.4436 18.2964 12.5778ZM8.09889 17.1419C8.09889 17.1419 6.13472 19.5911 5.52389 20.2269C5.32389 20.4336 5.10472 20.4144 5.10805 20.0044C5.10805 19.7353 5.12305 16.6578 5.12305 16.6578C1.27889 15.5561 1.50555 11.4128 1.54722 9.24526C1.58889 7.07693 1.98555 5.3011 3.15555 4.10526C5.85472 1.57443 13.4689 2.14026 15.4089 3.9636C17.7806 6.06609 16.9364 12.0061 16.9414 12.2086C16.4539 16.2703 13.5806 16.5278 13.0522 16.7036C12.8264 16.7786 10.7306 17.3178 8.09889 17.1419Z" fill="#8E24AA"/>
<path d="M9.18557 4.58105C8.86474 4.58105 8.86474 5.08105 9.18557 5.08522C11.6747 5.10439 13.7247 6.83939 13.7472 10.0219C13.7472 10.3577 14.2389 10.3536 14.2347 10.0177H14.2339C14.2072 6.58855 11.9689 4.60022 9.18557 4.58105Z" fill="#8E24AA"/>
<path d="M12.4598 9.49518C12.4523 9.82684 12.9432 9.84268 12.9473 9.50684C12.9882 7.61601 11.8223 6.05851 9.63151 5.89434C9.31067 5.87101 9.27734 6.37517 9.59734 6.39851C11.4973 6.54267 12.4982 7.83934 12.4598 9.49518Z" fill="#8E24AA"/>
<path d="M11.9347 11.6448C11.523 11.4064 11.1039 11.5548 10.9305 11.7889L10.568 12.2581C10.3839 12.4964 10.0397 12.4648 10.0397 12.4648C7.52802 11.8006 6.85636 9.17226 6.85636 9.17226C6.85636 9.17226 6.82553 8.81643 7.05553 8.62559L7.50886 8.25059C7.73553 8.07059 7.87886 7.63726 7.64803 7.21143C7.03136 6.09726 6.61719 5.71309 6.40636 5.41809C6.18469 5.14059 5.85136 5.07809 5.50469 5.26559H5.49719C4.77636 5.68726 3.98719 6.47643 4.23969 7.28893C4.67052 8.14559 5.46219 10.8764 7.98552 12.9398C9.17136 13.9156 11.048 14.9156 11.8447 15.1464L11.8522 15.1581C12.6372 15.4198 13.4005 14.5998 13.808 13.8573V13.8514C13.9889 13.4923 13.9289 13.1523 13.6647 12.9298C13.1964 12.4731 12.4897 11.9689 11.9347 11.6448Z" fill="#8E24AA"/>
<path d="M9.97477 7.75372C10.7756 7.80039 11.1639 8.21872 11.2056 9.07789C11.2206 9.41372 11.7081 9.39039 11.6931 9.05456C11.6398 7.93289 11.0548 7.30789 10.0014 7.24956C9.6806 7.23039 9.6506 7.73456 9.97477 7.75372Z" fill="#8E24AA"/>
</svg>
