<svg width="21" height="13" viewBox="0 0 21 13" fill="none" xmlns="http://www.w3.org/2000/svg">
<path opacity="0.3" d="M10.6269 12.5C13.6649 12.5 12.5816 10.6683 12.8161 10.1417C12.8126 9.74833 12.8091 9.37 12.8231 9.14C13.0156 9.19167 13.4697 9.41083 14.4077 10.2792C15.8559 11.6708 16.226 12.5 17.3959 12.5H19.5492C20.2317 12.5 20.587 12.2308 20.7646 12.005C20.9361 11.7867 21.1041 11.4033 20.9204 10.8067C20.44 9.37 17.6383 6.88917 17.4641 6.6275C17.4904 6.57917 17.5324 6.515 17.5543 6.48167H17.5525C18.1055 5.78583 20.216 2.77417 20.5266 1.56917C20.5275 1.5675 20.5284 1.565 20.5284 1.5625C20.6964 1.0125 20.5424 0.655833 20.3831 0.454167C20.1434 0.1525 19.7619 0 19.2465 0H17.0931C16.3721 0 15.8253 0.345833 15.5487 0.976667C15.0859 2.0975 13.7856 4.4025 12.8109 5.21833C12.7811 4.0625 12.8012 3.18 12.817 2.52417C12.8485 1.245 12.95 0 11.5561 0H8.17163C7.29837 0 6.46275 0.908333 7.3675 1.98667C8.1585 2.93167 7.65187 3.45833 7.8225 6.08C7.1575 5.40083 5.9745 3.56667 5.138 1.2225C4.9035 0.588333 4.54825 0.000833273 3.54812 0.000833273H1.39475C0.5215 0.000833273 0 0.454167 0 1.21333C0 2.91833 3.96288 12.5 10.6269 12.5ZM3.54812 1.25083C3.738 1.25083 3.75725 1.25083 3.89812 1.63167C4.75475 4.03417 6.67625 7.58917 8.07975 7.58917C9.13412 7.58917 9.13412 6.56 9.13412 6.1725L9.13325 3.0875C9.0755 2.06667 8.68525 1.55833 8.42887 1.25L11.4984 1.25333C11.5001 1.2675 11.4809 4.66583 11.5071 5.48917C11.5071 6.65833 12.4819 7.32833 14.0035 5.86167C15.6091 4.13583 16.7195 1.55583 16.7641 1.45083C16.8298 1.30083 16.8866 1.25 17.0931 1.25H19.2465H19.2553C19.2544 1.2525 19.2544 1.255 19.2535 1.2575C19.0566 2.1325 17.1133 4.92083 16.4631 5.78667C16.4526 5.8 16.443 5.81417 16.4334 5.82833C16.1472 6.27333 15.9145 6.765 16.4727 7.45667H16.4736C16.5244 7.515 16.6565 7.65167 16.849 7.84167C17.4475 8.43 19.5002 10.4417 19.6822 11.2417C19.5615 11.26 19.4303 11.2467 17.3959 11.2508C16.9628 11.2508 16.6241 10.6342 15.3317 9.3925C14.1697 8.31583 13.4155 7.87583 12.7286 7.87583C11.3951 7.87583 11.4922 8.90667 11.5045 10.1533C11.5089 11.505 11.5001 11.0775 11.5098 11.1625C11.4319 11.1917 11.2088 11.25 10.6269 11.25C5.075 11.25 1.4595 2.8575 1.32037 1.25333C1.3685 1.24917 2.03087 1.25167 3.54812 1.25083Z" fill="#333333"/>
</svg>
