<svg width="21" height="16" viewBox="0 0 21 16" fill="none" xmlns="http://www.w3.org/2000/svg">
<g opacity="0.3">
<path d="M8.6966 4.25284C8.26172 4.00534 7.70435 4.30451 7.70435 4.78951V10.6228C7.70435 11.1103 8.2626 11.4053 8.6966 11.1603L13.832 8.24784C14.259 8.00534 14.2581 7.41701 13.8328 7.17368L8.6966 4.25284ZM9.01685 9.52368V5.89034L12.215 7.70951L9.01685 9.52368Z" fill="#333333"/>
<path d="M17.416 0.431875C13.3446 -0.143958 7.65713 -0.143958 3.584 0.431875C1.95475 0.661875 0.671125 1.88021 0.391125 3.46188C-0.130375 6.39771 -0.130375 9.01521 0.391125 11.9502C0.671125 13.5327 1.95475 14.7502 3.584 14.9802C5.6245 15.2685 8.0675 15.4127 10.5096 15.4127C12.9474 15.4127 15.3843 15.2694 17.4169 14.981C19.0444 14.751 20.3271 13.5335 20.6089 11.951C21.1304 9.01521 21.1304 6.39688 20.6089 3.46104C20.3289 1.88021 19.0452 0.661875 17.416 0.431875ZM19.3147 11.7427C19.1284 12.7894 18.2884 13.5944 17.2235 13.7444C13.2703 14.3035 7.74025 14.3035 3.7765 13.7435C2.71075 13.5927 1.86987 12.7885 1.68437 11.7419C1.18212 8.91354 1.18212 6.49938 1.68437 3.66938C1.87075 2.62271 2.71075 1.81938 3.77737 1.66771C5.75663 1.38854 8.12875 1.24854 10.4991 1.24854C12.8712 1.24854 15.2434 1.38854 17.2226 1.66771C18.2884 1.81854 19.1292 2.62271 19.3147 3.66938C19.817 6.49938 19.817 8.91354 19.3147 11.7427Z" fill="#333333"/>
</g>
</svg>
